<svg width="36" height="36" viewBox="0 0 36 36" fill="none" xmlns="http://www.w3.org/2000/svg">
<g id="&#229;&#135;&#186;&#232;&#180;&#167; 1">
<path id="Vector" d="M6 13.5H30V25.5C30 25.894 29.9224 26.2841 29.7716 26.648C29.6209 27.012 29.3999 27.3427 29.1213 27.6213C28.8427 27.8999 28.512 28.1209 28.1481 28.2716C27.7841 28.4224 27.394 28.5 27 28.5H9C8.60603 28.5 8.21593 28.4224 7.85195 28.2716C7.48797 28.1209 7.15726 27.8999 6.87868 27.6213C6.6001 27.3427 6.37913 27.012 6.22836 26.648C6.0776 26.2841 6 25.894 6 25.5V13.5ZM11.1548 7.5H24.8453C25.285 7.50016 25.7193 7.59699 26.1174 7.78362C26.5156 7.97026 26.8678 8.24213 27.1493 8.58L30 12H6L8.85 8.58C9.13158 8.24194 9.48408 7.96994 9.8825 7.78331C10.2809 7.59667 10.7155 7.49994 11.1555 7.5H11.1548ZM18.7065 18.3187L21.132 20.745C21.2727 20.8856 21.4636 20.9646 21.6625 20.9645C21.8615 20.9645 22.0522 20.8854 22.1929 20.7446C22.3335 20.6039 22.4125 20.4131 22.4124 20.2141C22.4123 20.0152 22.3332 19.8244 22.1925 19.6837L18.5475 16.0395C18.4775 15.9492 18.3878 15.8761 18.2853 15.8258C18.1827 15.7755 18.07 15.7493 17.9558 15.7493C17.8415 15.7493 17.7288 15.7755 17.6262 15.8258C17.5237 15.8761 17.434 15.9492 17.364 16.0395L13.719 19.6845C13.6494 19.7542 13.5941 19.8369 13.5565 19.9279C13.5188 20.0189 13.4994 20.1165 13.4995 20.215C13.4995 20.3135 13.5189 20.4111 13.5567 20.5021C13.5944 20.5931 13.6497 20.6757 13.7194 20.7454C13.7891 20.815 13.8718 20.8702 13.9628 20.9079C14.0538 20.9456 14.1514 20.9649 14.2499 20.9649C14.3484 20.9649 14.4459 20.9454 14.5369 20.9077C14.6279 20.87 14.7106 20.8147 14.7803 20.745L17.2065 18.3187V24C17.2065 24.1989 17.2855 24.3897 17.4262 24.5303C17.5668 24.671 17.7576 24.75 17.9565 24.75C18.1554 24.75 18.3462 24.671 18.4868 24.5303C18.6275 24.3897 18.7065 24.1989 18.7065 24V18.3187Z" fill="#EA5E13"/>
</g>
</svg>
