<svg width="32" height="32" viewBox="0 0 32 32" fill="none" xmlns="http://www.w3.org/2000/svg">
<g id="Frame 2136637683">
<path id="Vector" d="M15.4178 14.064C17.1934 13.9687 18.8601 13.1784 20.0577 11.864C21.2553 10.5497 21.8876 8.81679 21.8178 7.04C21.8919 5.26051 21.2616 3.52352 20.0635 2.20566C18.8655 0.887795 17.1962 0.0952979 15.4178 0C13.6422 0.0953136 11.9754 0.885577 10.7778 2.19995C9.58018 3.51433 8.94794 5.24721 9.01776 7.024C8.94794 8.80079 9.58018 10.5337 10.7778 11.848C11.9754 13.1624 13.6422 13.9527 15.4178 14.048V14.064ZM14.6658 24.32L20.6178 15.728C18.9214 15.275 17.1735 15.0437 15.4178 15.04C12.8092 14.9283 10.2111 15.4326 7.83376 16.512C7.83376 16.512 7.35376 16.512 6.40976 18.112C4.96976 20.496 2.74576 23.984 2.10576 25.152C1.64176 25.92 0.505759 27.44 1.24176 29.056C1.73707 30.1028 2.34894 31.0904 3.06576 32H6.63376C6.77239 29.9539 7.66904 28.033 9.14845 26.6128C10.6279 25.1926 12.5837 24.375 14.6338 24.32H14.6658ZM28.7298 25.12C27.6258 23.2 25.1938 19.312 25.0018 18.96C24.8098 18.608 23.9458 16.752 22.4418 16.272L21.8178 16.08L16.1218 24.32C18.1935 24.3504 20.1788 25.1558 21.6862 26.5774C23.1937 27.9989 24.114 29.9336 24.2658 32H27.4658C27.4658 32 27.8178 32 29.5138 28.896C30.1538 27.296 29.5138 26.528 28.6818 25.12H28.7298ZM15.4178 26.352C11.6578 26.352 8.61776 28.8 8.61776 32H22.2178C22.2178 28.8 19.1778 26.352 15.4178 26.352Z" fill="#EA5E13"/>
</g>
</svg>
