<svg width="36" height="36" viewBox="0 0 36 36" fill="none" xmlns="http://www.w3.org/2000/svg">
<g id="transform-1 1">
<path id="Vector" d="M15.75 29.25H13.5V27H15.75V29.25ZM20.25 27H18V29.25H20.25V27ZM24.75 27H22.5V29.25H24.75V27ZM29.25 27H27V29.25H29.25V27ZM33.75 22.5V33.7095L9 33.75V33.7185L2.25 33.75V2.28825L11.25 2.25V22.536L33.75 22.5ZM31.5 24.75L11.25 24.7455V31.5315L31.5 31.5V24.75ZM13.6013 8.30475C13.6575 8.4375 13.7385 8.66925 13.8398 8.7705C13.8443 8.7795 13.8465 8.784 13.851 8.7885L18.2947 13.1445C18.5197 13.3695 18.8122 13.482 19.107 13.482C19.4062 13.482 19.701 13.5743 19.9237 13.3493C20.376 12.897 20.376 12.168 19.9237 11.7135L17.2372 8.92575H18H27V15.7883V16.4362L24.2392 13.8105C23.787 13.3583 23.058 13.3583 22.6035 13.8105C22.1535 14.2583 21.9465 14.994 22.3987 15.4417L27.2272 19.8855C27.2452 19.908 27.2745 19.917 27.297 19.9328C27.3892 20.0115 27.486 20.0858 27.6008 20.1353C27.729 20.1825 27.7988 20.205 27.9293 20.214C27.9473 20.214 27.9608 20.223 27.9765 20.223C28.0035 20.223 28.0238 20.2095 28.0508 20.2095C28.1745 20.2005 28.0733 20.1825 28.1948 20.1353C28.3275 20.079 28.5592 19.9958 28.6605 19.8945C28.6695 19.89 28.674 19.89 28.6785 19.8855L33.0345 15.4417C33.2595 15.2167 33.372 14.9242 33.372 14.6295C33.372 14.3302 33.4642 14.0355 33.2392 13.8127C32.787 13.3605 32.058 13.3605 31.6035 13.8127L29.169 16.1595C29.1982 16.0313 29.25 15.9188 29.25 15.7883V8.92575C29.25 7.6815 28.2442 6.78825 27 6.78825H18C17.829 6.78825 17.676 6.84225 17.5162 6.876L19.9237 4.34475C20.376 3.8925 20.376 3.1635 19.9237 2.709C19.476 2.25675 18.7425 2.052 18.2947 2.50425L13.851 7.33275C13.8285 7.35075 13.8195 7.38 13.8038 7.4025C13.725 7.497 13.6485 7.59375 13.6013 7.70625C13.5518 7.8345 13.5293 7.90425 13.5225 8.037C13.5225 8.055 13.5135 8.0685 13.5135 8.08425C13.5135 8.11125 13.527 8.1315 13.527 8.1585C13.536 8.28225 13.5518 8.181 13.6013 8.30475Z" fill="#FF5A00"/>
</g>
</svg>
