<svg width="32" height="32" viewBox="0 0 32 32" fill="none" xmlns="http://www.w3.org/2000/svg">
<g id="&#229;&#135;&#134;&#231;&#161;&#174;&#230;&#128;&#167; 1" clip-path="url(#clip0_176_64)">
<path id="Vector" d="M15.9252 0.0224304C7.14602 0.0224304 0.00521851 7.14723 0.00521851 15.9424C0.00521851 24.7232 7.13002 31.8624 15.9252 31.8624C18.016 31.8631 20.0865 31.4517 22.0183 30.6519C23.9501 29.852 25.7053 28.6794 27.1838 27.201C28.6622 25.7225 29.8348 23.9673 30.6347 22.0355C31.4345 20.1037 31.8459 18.0333 31.8452 15.9424C31.8452 7.14723 24.706 0.0224304 15.9252 0.0224304ZM25.0276 16.3936C25.0276 16.4527 25.0159 16.5113 24.9932 16.5658C24.9705 16.6204 24.9372 16.6699 24.8953 16.7116C24.8533 16.7532 24.8036 16.7861 24.7488 16.8085C24.6941 16.8308 24.6355 16.8421 24.5764 16.8416H23.162C22.9601 18.4431 22.231 19.9319 21.0897 21.0733C19.9483 22.2147 18.4595 22.9437 16.858 23.1456V24.5616C16.8582 24.6207 16.8467 24.6793 16.8242 24.7339C16.8017 24.7886 16.7686 24.8382 16.7268 24.88C16.685 24.9218 16.6354 24.9549 16.5807 24.9774C16.5261 25 16.4675 25.0114 16.4084 25.0112H15.49C15.4308 25.0117 15.3721 25.0003 15.3172 24.9779C15.2624 24.9555 15.2126 24.9224 15.1706 24.8806C15.1286 24.8388 15.0954 24.7891 15.0728 24.7343C15.0501 24.6796 15.0386 24.6209 15.0388 24.5616V23.1472C13.4373 22.9453 11.9486 22.2163 10.8072 21.0749C9.6658 19.9335 8.9367 18.4447 8.73482 16.8432H7.32042C7.26132 16.8434 7.20276 16.832 7.14812 16.8094C7.09347 16.7869 7.04382 16.7538 7.00203 16.712C6.96024 16.6702 6.92713 16.6206 6.90461 16.5659C6.88209 16.5113 6.87061 16.4527 6.87082 16.3936V15.4752C6.87082 15.2176 7.07882 15.024 7.32042 15.024H8.73642C8.93904 13.4229 9.66866 11.9347 10.8103 10.7939C11.9519 9.65312 13.4407 8.92463 15.042 8.72323V7.30883C15.042 7.05283 15.25 6.85923 15.49 6.85923H16.4084C16.6644 6.85923 16.858 7.06723 16.858 7.30883V8.72483C18.4595 8.92672 19.9483 9.65581 21.0897 10.7972C22.231 11.9386 22.9601 13.4273 23.162 15.0288H24.5764C24.8324 15.0288 25.0276 15.2368 25.0276 15.4768V16.3952V16.3936Z" fill="#EA5E13"/>
<path id="Vector_2" d="M15.9232 9.95679C15.1394 9.95637 14.3633 10.1105 13.6391 10.4102C12.9149 10.71 12.2569 11.1496 11.7028 11.7039C11.1487 12.2582 10.7092 12.9163 10.4096 13.6406C10.11 14.3648 9.95616 15.141 9.95679 15.9248C9.95658 16.7084 10.1108 17.4844 10.4107 18.2084C10.7106 18.9324 11.1502 19.5902 11.7045 20.1441C12.2588 20.6981 12.9168 21.1374 13.6409 21.4369C14.3651 21.7364 15.1412 21.8902 15.9248 21.8896C16.7083 21.8898 17.4842 21.7356 18.208 21.4358C18.9319 21.136 19.5896 20.6965 20.1436 20.1424C20.6975 19.5883 21.1368 18.9305 21.4364 18.2066C21.736 17.4826 21.89 16.7067 21.8896 15.9232C21.89 15.1396 21.736 14.3635 21.4363 13.6394C21.1366 12.9154 20.6971 12.2575 20.143 11.7034C19.5889 11.1493 18.931 10.7098 18.2069 10.4101C17.4829 10.1104 16.7068 9.95637 15.9232 9.95679ZM15.9232 19.5568C15.446 19.5572 14.9735 19.4636 14.5325 19.2812C14.0916 19.0988 13.6909 18.8314 13.3535 18.494C13.016 18.1567 12.7483 17.7562 12.5658 17.3153C12.3832 16.8745 12.2894 16.4019 12.2896 15.9248C12.2887 15.4472 12.3821 14.9742 12.5644 14.5328C12.7467 14.0914 13.0142 13.6903 13.3518 13.3524C13.6893 13.0146 14.0902 12.7467 14.5314 12.564C14.9727 12.3814 15.4456 12.2876 15.9232 12.288C16.4005 12.2876 16.8732 12.3813 17.3142 12.5637C17.7552 12.7462 18.156 13.0138 18.4935 13.3513C18.831 13.6888 19.0986 14.0895 19.2811 14.5306C19.4635 14.9716 19.5572 15.4443 19.5568 15.9216C19.5572 16.3987 19.4636 16.8713 19.2812 17.3122C19.0988 17.7532 18.8314 18.1538 18.494 18.4913C18.1567 18.8288 17.7562 19.0964 17.3153 19.279C16.8745 19.4615 16.4019 19.5554 15.9248 19.5552L15.9232 19.5568Z" fill="#EA5E13"/>
</g>
<defs>
<clipPath id="clip0_176_64">
<rect width="32" height="32" fill="white"/>
</clipPath>
</defs>
</svg>
