<svg width="36" height="36" viewBox="0 0 36 36" fill="none" xmlns="http://www.w3.org/2000/svg">
<g id="&#232;&#191;&#155;&#232;&#180;&#167; 1">
<path id="Vector" d="M31.4913 26.1189C31.3515 27.0674 30.7385 27.3579 30.3284 27.3457H8.85317C8.39337 27.3566 7.87596 27.0067 7.73793 25.9652L5.67167 7.46122C5.67167 7.46122 4.29164 7.46122 3.88199 7.46122C3.11326 7.46122 2.49013 6.83809 2.49013 6.06933C2.49013 5.3006 3.11326 4.67743 3.88199 4.67743C4.49174 4.67743 6.48594 4.67743 6.48594 4.67743C7.18145 4.67743 7.52776 4.99941 7.7453 5.95172L8.45546 9.05199H31.9191C32.7141 9.05199 33.5099 9.83849 33.5099 10.6428L31.4913 26.1189ZM21.9506 18.9377V11.0404H17.2309V18.9377H14.0287L19.5907 24.5618L25.1529 18.9377H21.9506ZM10.8416 28.141C11.7201 28.141 12.4324 28.8533 12.4324 29.7319C12.4324 30.6104 11.7201 31.3226 10.8416 31.3226C9.96295 31.3226 9.25081 30.6104 9.25081 29.7319C9.25084 28.8533 9.96298 28.141 10.8416 28.141ZM28.3399 28.141C29.2185 28.141 29.9307 28.8533 29.9307 29.7319C29.9307 30.6104 29.2185 31.3226 28.3399 31.3226C27.4613 31.3226 26.7492 30.6104 26.7492 29.7319C26.7492 28.8533 27.4613 28.141 28.3399 28.141Z" fill="#EA5E13"/>
</g>
</svg>
