<svg width="32" height="38" viewBox="0 0 32 38" fill="none" xmlns="http://www.w3.org/2000/svg">
<path id="Subtract" d="M23.5996 0C24.7996 0 25.7334 0.933344 25.7334 2C25.7334 3.06665 24.7996 4 23.5996 4H18V5.86621C25.8666 6.93286 31.9999 13.5998 32 21.5996C32 30.2662 24.8 37.333 16 37.333C7.2 37.333 0 30.2662 0 21.5996C9.19242e-05 13.5999 6.13315 6.93352 13.8662 6V4.13281H8.2666C7.06681 4.13278 6.13407 3.20023 6.13379 2.13379C6.13379 1.06713 7.20039 0 8.40039 0H23.5996ZM21.7363 16.666C20.9363 15.8664 19.4698 15.8663 18.6699 16.666L14.5371 20.9326L10.8037 20.5332C9.6038 20.3999 8.53678 21.1996 8.40332 22.3994C8.26999 23.5994 9.20332 24.6665 10.4033 24.7998L15.0703 25.1992C15.7369 25.1991 16.4038 24.9331 16.8037 24.5332L21.7363 19.7334C22.5363 18.9334 22.5363 17.466 21.7363 16.666Z" fill="#EA5E13"/>
</svg>
