<svg width="36" height="36" viewBox="0 0 36 36" fill="none" xmlns="http://www.w3.org/2000/svg">
<g id="Frame 2136637700">
<g id="Group 912">
<g id="Group 910">
<rect id="Rectangle 1375" x="4.5" y="6.5" width="31" height="20.3333" stroke="#EA5E13"/>
<rect id="Rectangle 1376" x="4" y="6" width="32" height="2.66667" fill="#EA5E13"/>
<rect id="Rectangle 1377" x="12" y="18" width="5" height="9.33333" fill="#EA5E13"/>
<rect id="Rectangle 1378" x="22.5555" y="18" width="5" height="9.33333" fill="#EA5E13"/>
</g>
<g id="&#231;&#154;&#174;&#229;&#141;&#161; 1">
<path id="Vector" d="M1.91111 24.5111H1.03703L1.28888 25.7407H1.89629V25.6814C1.89629 25.1777 2.1037 24.7333 2.42962 24.4073C2.75555 24.0814 3.2 23.874 3.7037 23.874C4.2074 23.874 4.65185 24.0814 4.97777 24.4073C5.3037 24.7333 5.51111 25.1777 5.51111 25.6814V25.7407H6.99259V20.7629H7.14074V25.7259H10.2815V25.6666C10.2815 25.1777 10.4741 24.7333 10.8 24.4073C11.1111 24.0962 11.5556 23.8888 12.0593 23.8888C12.5481 23.8888 12.9926 24.0814 13.3185 24.4073C13.6444 24.7333 13.837 25.1777 13.837 25.6666V25.7259H13.9556L14.3259 24.9407V24.1259H14.5481V23.5629H15.0222V22.1111H7.91111C7.89629 21.5185 7.86666 20.9555 7.79259 20.4073H4.59259C3.88148 21.0296 3.42222 21.7407 3.14074 22.4962C2.65185 22.6592 2.16296 22.837 1.67407 22.9999C1.51111 23.2666 1.39259 23.5481 1.31851 23.8148H2.16296L1.91111 24.5111ZM6.48888 23.2962V23.5185H5.92592V23.2962H6.48888ZM6.56296 20.8666V22.9555H5.11111L4.62222 22.5703H3.76296C3.95555 21.9481 4.31111 21.3851 4.77037 20.8666H6.56296ZM12.9926 22.3333V23.2814H12.8148V22.3333H12.9926ZM14.4593 22.3333V23.2814H14.2815V22.3333H14.4593ZM11.5259 22.3333V23.2814H11.3481V22.3333H11.5259ZM10.0444 22.3333V23.2814H9.86666V22.3333H10.0444ZM8.57777 22.3333V23.2814H8.4V22.3333H8.57777ZM3.7037 24.3185C4.07407 24.3185 4.41481 24.4666 4.66666 24.7185C4.9037 24.9555 5.06666 25.2962 5.06666 25.6814C5.06666 26.0518 4.91851 26.3925 4.66666 26.6444C4.41481 26.8962 4.08888 27.0444 3.7037 27.0444C3.33333 27.0444 2.99259 26.8962 2.74074 26.6444C2.48888 26.3925 2.34074 26.0666 2.34074 25.6814C2.34074 25.3111 2.48888 24.9703 2.74074 24.7185C2.99259 24.4666 3.33333 24.3185 3.7037 24.3185ZM3.68888 25.2518C3.8074 25.2518 3.91111 25.2962 3.98518 25.3703C4.05925 25.4444 4.1037 25.5481 4.1037 25.6666C4.1037 25.7851 4.05925 25.8888 3.98518 25.9629C3.91111 26.037 3.8074 26.0814 3.68888 26.0814C3.57036 26.0814 3.46666 26.037 3.39259 25.9629C3.31851 25.8888 3.27407 25.7851 3.27407 25.6666C3.27407 25.5481 3.31851 25.4444 3.39259 25.3703C3.46666 25.2962 3.57036 25.2518 3.68888 25.2518ZM3.55555 25.5481C3.58518 25.5185 3.62962 25.4888 3.68888 25.4888C3.73333 25.4888 3.79259 25.5036 3.82222 25.5481C3.85185 25.5777 3.88148 25.6222 3.88148 25.6814C3.88148 25.7259 3.86666 25.7851 3.82222 25.8148C3.79259 25.8444 3.74814 25.874 3.68888 25.874C3.64444 25.874 3.58518 25.8592 3.55555 25.8148C3.52592 25.7851 3.49629 25.7407 3.49629 25.6814C3.51111 25.6222 3.52592 25.5777 3.55555 25.5481ZM3.28888 25.2518C3.39259 25.1481 3.54074 25.074 3.7037 25.074C3.86666 25.074 4.01481 25.1333 4.11851 25.2518C4.22222 25.3555 4.29629 25.5036 4.29629 25.6666C4.29629 25.8296 4.23703 25.9777 4.11851 26.0814C4.01481 26.1851 3.86666 26.2592 3.7037 26.2592C3.54074 26.2592 3.39259 26.1999 3.28888 26.0814C3.18518 25.9777 3.11111 25.8296 3.11111 25.6666C3.11111 25.5036 3.17037 25.3555 3.28888 25.2518ZM12.0593 24.3185C12.4296 24.3185 12.7704 24.4666 13.0222 24.7185C13.2593 24.9555 13.4222 25.2962 13.4222 25.6814C13.4222 26.0518 13.2741 26.3925 13.0222 26.6444C12.7704 26.8962 12.4444 27.0444 12.0593 27.0444C11.6889 27.0444 11.3481 26.8962 11.0963 26.6444C10.8444 26.3925 10.6963 26.0666 10.6963 25.6814C10.6963 25.3111 10.8444 24.9703 11.0963 24.7185C11.3481 24.4666 11.6741 24.3185 12.0593 24.3185ZM12.0593 25.2518C12.1778 25.2518 12.2815 25.2962 12.3556 25.3703C12.4296 25.4444 12.4741 25.5481 12.4741 25.6666C12.4741 25.7851 12.4296 25.8888 12.3556 25.9629C12.2815 26.037 12.1778 26.0814 12.0593 26.0814C11.9407 26.0814 11.837 26.037 11.763 25.9629C11.6889 25.8888 11.6444 25.7851 11.6444 25.6666C11.6444 25.5481 11.6889 25.4444 11.763 25.3703C11.8222 25.2962 11.9407 25.2518 12.0593 25.2518ZM11.9259 25.5481C11.9556 25.5185 12 25.4888 12.0593 25.4888C12.1037 25.4888 12.163 25.5036 12.1926 25.5481C12.2222 25.5777 12.2518 25.6222 12.2518 25.6814C12.2518 25.7259 12.237 25.7851 12.1926 25.8148C12.163 25.8444 12.1185 25.874 12.0593 25.874C12.0148 25.874 11.9556 25.8592 11.9259 25.8148C11.8963 25.7851 11.8667 25.7407 11.8667 25.6814C11.8667 25.6222 11.8815 25.5777 11.9259 25.5481ZM11.6296 25.2518C11.7333 25.1481 11.8815 25.074 12.0444 25.074C12.2074 25.074 12.3556 25.1333 12.4593 25.2518C12.563 25.3555 12.637 25.5036 12.637 25.6666C12.637 25.8296 12.5778 25.9777 12.4593 26.0814C12.3556 26.1851 12.2074 26.2592 12.0444 26.2592C11.8815 26.2592 11.7333 26.1999 11.6296 26.0814C11.5259 25.9777 11.4518 25.8296 11.4518 25.6666C11.4667 25.5036 11.5259 25.3555 11.6296 25.2518Z" fill="#ED8611"/>
</g>
<path id="Vector_2" d="M19.1193 11.1057C18.9121 12.233 18.9121 12.9093 19.1193 13.1347C19.43 13.4729 19.9005 13.3884 20.6215 13.1347C21.1021 12.9657 23.2283 12.2541 27 11C22.8933 13.2968 20.5823 14.5509 20.067 14.7622C19.294 15.0793 18.7478 15.0793 18.3378 14.7622C17.9278 14.4452 17.9009 13.4941 18.2034 12.7754C18.405 12.2964 18.7103 11.7398 19.1193 11.1057Z" fill="#EA5E13"/>
</g>
</g>
</svg>
