<svg width="48" height="48" viewBox="0 0 48 48" fill="none" xmlns="http://www.w3.org/2000/svg">
<g id="Frame 2136637700">
<g id="Group 912">
<g id="Group 910">
<rect id="Rectangle 1375" x="5.83325" y="8.5" width="41.6667" height="27.4444" stroke="#EA5E13"/>
<rect id="Rectangle 1376" x="5.33325" y="8" width="42.6667" height="3.55556" fill="#EA5E13"/>
<rect id="Rectangle 1377" x="15.9999" y="24" width="6.66667" height="12.4444" fill="#EA5E13"/>
<rect id="Rectangle 1378" x="30.074" y="24" width="6.66667" height="12.4444" fill="#EA5E13"/>
</g>
<g id="&#231;&#154;&#174;&#229;&#141;&#161; 1">
<path id="Vector" d="M2.54806 27.6814H1.38263L1.71843 29.321H2.52831V29.2419C2.52831 28.5703 2.80485 27.9777 3.23942 27.5432C3.67399 27.1086 4.26658 26.8321 4.93818 26.8321C5.60979 26.8321 6.20238 27.1086 6.63695 27.5432C7.07152 27.9777 7.34806 28.5703 7.34806 29.2419V29.321H9.32337V22.6839H9.5209V29.3012H13.7086V29.2222C13.7086 28.5703 13.9653 27.9777 14.3999 27.5432C14.8147 27.1284 15.4073 26.8518 16.0789 26.8518C16.7308 26.8518 17.3234 27.1086 17.7579 27.5432C18.1925 27.9777 18.4493 28.5703 18.4493 29.2222V29.3012H18.6073L19.1011 28.2543V27.1679H19.3974V26.4172H20.0295V24.4814H10.5481C10.5283 23.6913 10.4888 22.9407 10.39 22.2098H6.12337C5.17522 23.0395 4.56287 23.9876 4.18757 24.995C3.53571 25.2123 2.88386 25.4493 2.23201 25.6666C2.01473 26.0222 1.8567 26.3975 1.75794 26.753H2.88386L2.54806 27.6814ZM8.65176 26.0617V26.358H7.90115V26.0617H8.65176ZM8.75053 22.8222V25.6074H6.81473L6.16287 25.0938H5.0172C5.27399 24.2642 5.74806 23.5135 6.36041 22.8222H8.75053ZM17.3234 24.7777V26.0419H17.0863V24.7777H17.3234ZM19.2789 24.7777V26.0419H19.0419V24.7777H19.2789ZM15.3678 24.7777V26.0419H15.1308V24.7777H15.3678ZM13.3925 24.7777V26.0419H13.1555V24.7777H13.3925ZM11.4369 24.7777V26.0419H11.1999V24.7777H11.4369ZM4.93818 27.4247C5.43201 27.4247 5.88633 27.6222 6.22213 27.958C6.53818 28.274 6.75547 28.7284 6.75547 29.2419C6.75547 29.7358 6.55794 30.1901 6.22213 30.5259C5.88633 30.8617 5.45176 31.0592 4.93818 31.0592C4.44436 31.0592 3.99004 30.8617 3.65423 30.5259C3.31843 30.1901 3.1209 29.7555 3.1209 29.2419C3.1209 28.7481 3.31843 28.2938 3.65423 27.958C3.99004 27.6222 4.44436 27.4247 4.93818 27.4247ZM4.91843 28.6691C5.07645 28.6691 5.21473 28.7284 5.31349 28.8271C5.41226 28.9259 5.47152 29.0642 5.47152 29.2222C5.47152 29.3802 5.41226 29.5185 5.31349 29.6172C5.21473 29.716 5.07645 29.7753 4.91843 29.7753C4.76041 29.7753 4.62213 29.716 4.52337 29.6172C4.4246 29.5185 4.36534 29.3802 4.36534 29.2222C4.36534 29.0642 4.4246 28.9259 4.52337 28.8271C4.62213 28.7284 4.76041 28.6691 4.91843 28.6691ZM4.74065 29.0642C4.78016 29.0247 4.83942 28.9851 4.91843 28.9851C4.97769 28.9851 5.0567 29.0049 5.09621 29.0642C5.13571 29.1037 5.17522 29.1629 5.17522 29.2419C5.17522 29.3012 5.15547 29.3802 5.09621 29.4197C5.0567 29.4592 4.99744 29.4987 4.91843 29.4987C4.85917 29.4987 4.78016 29.479 4.74065 29.4197C4.70115 29.3802 4.66164 29.321 4.66164 29.2419C4.68139 29.1629 4.70115 29.1037 4.74065 29.0642ZM4.3851 28.6691C4.52337 28.5308 4.7209 28.4321 4.93818 28.4321C5.15547 28.4321 5.353 28.5111 5.49127 28.6691C5.62954 28.8074 5.72831 29.0049 5.72831 29.2222C5.72831 29.4395 5.64929 29.637 5.49127 29.7753C5.353 29.9135 5.15547 30.0123 4.93818 30.0123C4.7209 30.0123 4.52337 29.9333 4.3851 29.7753C4.24683 29.637 4.14806 29.4395 4.14806 29.2222C4.14806 29.0049 4.22707 28.8074 4.3851 28.6691ZM16.0789 27.4247C16.5728 27.4247 17.0271 27.6222 17.3629 27.958C17.6789 28.274 17.8962 28.7284 17.8962 29.2419C17.8962 29.7358 17.6987 30.1901 17.3629 30.5259C17.0271 30.8617 16.5925 31.0592 16.0789 31.0592C15.5851 31.0592 15.1308 30.8617 14.795 30.5259C14.4592 30.1901 14.2616 29.7555 14.2616 29.2419C14.2616 28.7481 14.4592 28.2938 14.795 27.958C15.1308 27.6222 15.5653 27.4247 16.0789 27.4247ZM16.0789 28.6691C16.2369 28.6691 16.3752 28.7284 16.474 28.8271C16.5728 28.9259 16.632 29.0642 16.632 29.2222C16.632 29.3802 16.5728 29.5185 16.474 29.6172C16.3752 29.716 16.2369 29.7753 16.0789 29.7753C15.9209 29.7753 15.7826 29.716 15.6839 29.6172C15.5851 29.5185 15.5258 29.3802 15.5258 29.2222C15.5258 29.0642 15.5851 28.9259 15.6839 28.8271C15.7629 28.7284 15.9209 28.6691 16.0789 28.6691ZM15.9011 29.0642C15.9407 29.0247 15.9999 28.9851 16.0789 28.9851C16.1382 28.9851 16.2172 29.0049 16.2567 29.0642C16.2962 29.1037 16.3357 29.1629 16.3357 29.2419C16.3357 29.3012 16.316 29.3802 16.2567 29.4197C16.2172 29.4592 16.1579 29.4987 16.0789 29.4987C16.0197 29.4987 15.9407 29.479 15.9011 29.4197C15.8616 29.3802 15.8221 29.321 15.8221 29.2419C15.8221 29.1629 15.8419 29.1037 15.9011 29.0642ZM15.5061 28.6691C15.6444 28.5308 15.8419 28.4321 16.0592 28.4321C16.2765 28.4321 16.474 28.5111 16.6123 28.6691C16.7505 28.8074 16.8493 29.0049 16.8493 29.2222C16.8493 29.4395 16.7703 29.637 16.6123 29.7753C16.474 29.9135 16.2765 30.0123 16.0592 30.0123C15.8419 30.0123 15.6444 29.9333 15.5061 29.7753C15.3678 29.637 15.269 29.4395 15.269 29.2222C15.2888 29.0049 15.3678 28.8074 15.5061 28.6691Z" fill="#FF941A"/>
</g>
<path id="Vector_2" d="M25.4924 14.8075C25.2162 16.3106 25.2162 17.2124 25.4924 17.5129C25.9067 17.9639 26.534 17.8511 27.4953 17.5129C28.1361 17.2875 30.971 16.3387 36 14.6666C30.5244 17.729 27.443 19.4011 26.756 19.6829C25.7254 20.1056 24.997 20.1056 24.4504 19.6829C23.9038 19.2602 23.8679 17.992 24.2712 17.0339C24.54 16.3951 24.9471 15.653 25.4924 14.8075Z" fill="#EA5E13"/>
</g>
</g>
</svg>
