<svg width="24" height="24" viewBox="0 0 24 24" fill="none" xmlns="http://www.w3.org/2000/svg">
<g id="Frame 2136637655">
<path id="Vector" d="M19.1523 13.2528C19.1523 12.8146 19.0022 12.4377 18.6932 12.1047L9.65121 3.14806C9.33333 2.83256 8.89183 2.56089 8.36203 2.33303C7.81457 2.10517 7.32892 2 6.88742 2H1.62472C1.18322 2 0.803532 2.16651 0.485651 2.48201C0.167771 2.79751 0 3.17435 0 3.61255V8.81827C0 9.25646 0.10596 9.756 0.335541 10.2818C0.565121 10.8252 0.821192 11.2458 1.15673 11.5613L10.1987 20.5355C10.5166 20.851 10.8962 20.9912 11.3377 20.9912C11.7793 20.9912 12.1589 20.8422 12.4945 20.5355L18.6932 14.3833C18.9845 14.0678 19.1523 13.691 19.1523 13.2528ZM5.18322 7.1619C4.86534 7.4774 4.48565 7.62638 4.04415 7.62638C3.60265 7.62638 3.22296 7.4774 2.90508 7.1619C2.5872 6.8464 2.43709 6.46956 2.43709 6.03137C2.43709 5.59317 2.5872 5.21633 2.90508 4.90083C3.22296 4.58533 3.60265 4.43635 4.04415 4.43635C4.48565 4.43635 4.86534 4.58533 5.18322 4.90083C5.5011 5.21633 5.64238 5.59317 5.64238 6.03137C5.66887 6.47832 5.5011 6.8464 5.18322 7.1619ZM23.5408 12.0959L14.4989 3.14806C14.181 2.83256 13.7395 2.56089 13.2097 2.33303C12.6623 2.10517 12.1766 2 11.7351 2H8.89183C9.33333 2 9.83665 2.10517 10.3664 2.33303C10.9139 2.56089 11.3377 2.81504 11.6556 3.14806L20.6976 12.0959C21.0155 12.429 21.1656 12.8058 21.1656 13.244C21.1656 13.6822 21.0155 14.059 20.6976 14.3745L14.7726 20.2726C15.0287 20.5268 15.2583 20.7108 15.4437 20.8335C15.6291 20.9562 15.8852 21 16.1854 21C16.6269 21 17.0066 20.851 17.3422 20.5355L23.5408 14.3658C23.8587 14.0503 24 13.6734 24 13.2352C24 12.797 23.8499 12.4377 23.5408 12.0959Z" fill="#EA5E13"/>
</g>
</svg>
