<svg width="36" height="36" viewBox="0 0 36 36" fill="none" xmlns="http://www.w3.org/2000/svg">
<g id="&#230;&#178;&#153;&#230;&#188;&#143; 1">
<path id="Vector" d="M9.36004 25.92C9.36004 22.3776 11.4912 19.3334 14.5426 18C11.4912 16.6658 9.36004 13.6224 9.36004 10.08V4.31997H6.12004C5.83361 4.31997 5.5589 4.20619 5.35636 4.00365C5.15382 3.80111 5.04004 3.52641 5.04004 3.23997C5.04004 2.95354 5.15382 2.67884 5.35636 2.4763C5.5589 2.27376 5.83361 2.15997 6.12004 2.15997H29.88C30.1665 2.15997 30.4412 2.27376 30.6437 2.4763C30.8463 2.67884 30.96 2.95354 30.96 3.23997C30.96 3.52641 30.8463 3.80111 30.6437 4.00365C30.4412 4.20619 30.1665 4.31997 29.88 4.31997H26.64V10.08C26.64 13.6224 24.5088 16.6665 21.4575 18C24.5088 19.3341 26.64 22.3776 26.64 25.92V31.68H29.88C30.1665 31.68 30.4412 31.7938 30.6437 31.9963C30.8463 32.1988 30.96 32.4735 30.96 32.76C30.96 33.0464 30.8463 33.3211 30.6437 33.5236C30.4412 33.7262 30.1665 33.84 29.88 33.84H6.12004C5.83361 33.84 5.5589 33.7262 5.35636 33.5236C5.15382 33.3211 5.04004 33.0464 5.04004 32.76C5.04004 32.4735 5.15382 32.1988 5.35636 31.9963C5.5589 31.7938 5.83361 31.68 6.12004 31.68H9.36004V25.92Z" fill="#EA5E13"/>
<path id="Vector_2" d="M23.76 9C24.0465 9 24.3212 9.11379 24.5237 9.31632C24.7263 9.51886 24.84 9.79357 24.84 10.08C24.84 12.4582 23.616 14.6268 21.6418 15.871C21.5218 15.9466 21.3881 15.9979 21.2483 16.0218C21.1085 16.0458 20.9654 16.042 20.827 16.0106C20.6887 15.9793 20.5579 15.921 20.4421 15.8391C20.3263 15.7572 20.2278 15.6533 20.1521 15.5333C20.0765 15.4133 20.0252 15.2796 20.0012 15.1398C19.9773 15 19.9811 14.8568 20.0124 14.7185C20.0438 14.5802 20.1021 14.4494 20.184 14.3336C20.2659 14.2178 20.3698 14.1192 20.4898 14.0436C21.1608 13.6226 21.7138 13.038 22.0969 12.3447C22.48 11.6514 22.6807 10.8721 22.68 10.08C22.68 9.93817 22.708 9.79773 22.7623 9.6667C22.8165 9.53567 22.8961 9.41661 22.9964 9.31632C23.0967 9.21604 23.2157 9.13648 23.3467 9.08221C23.4778 9.02793 23.6182 9 23.76 9Z" fill="white"/>
</g>
</svg>
