<svg width="36" height="36" viewBox="0 0 36 36" fill="none" xmlns="http://www.w3.org/2000/svg">
<g id="&#228;&#188;&#160;&#233;&#128;&#129;&#229;&#184;&#166;-conveyor-belt-filled 1">
<path id="Vector" d="M31.5663 15.8692C32.9726 15.8692 34.1235 16.9616 34.2168 18.3442L34.2225 18.5265L34.218 20.4952H20.7236L20.6426 20.4997C20.4363 20.5191 20.2444 20.6137 20.1033 20.7655C19.9623 20.9173 19.8821 21.1156 19.8779 21.3228C19.8737 21.5299 19.9459 21.7314 20.0807 21.8887C20.2155 22.0461 20.4035 22.1483 20.6088 22.176L20.7236 22.1827H34.2146L34.2112 23.9793H20.7225L20.6426 23.9838C20.4363 24.0032 20.2444 24.0978 20.1033 24.2496C19.9623 24.4014 19.8821 24.5998 19.8779 24.8069C19.8737 25.0141 19.9459 25.2155 20.0807 25.3728C20.2155 25.5302 20.4035 25.6324 20.6088 25.6601L20.7236 25.668H34.2067L34.2033 27.3532C34.2018 28.0252 33.9455 28.6717 33.4863 29.1623C33.027 29.6529 32.3988 29.9511 31.7283 29.997L31.5472 30.0026H8.82109C6.97302 29.9968 5.20075 29.2673 3.88409 27.9704C2.56743 26.6736 1.81115 24.9126 1.77731 23.0648C1.74347 21.217 2.43477 19.4295 3.70306 18.0853C4.97135 16.7411 6.71572 15.9472 8.56234 15.8737L8.82109 15.8692H31.5652H31.5663ZM9.98434 18.7177C8.86546 18.7177 7.7924 19.1622 7.00124 19.9534C6.21007 20.7445 5.76559 21.8176 5.76559 22.9365C5.76559 24.0554 6.21007 25.1284 7.00124 25.9196C7.7924 26.7107 8.86546 27.1552 9.98434 27.1552C11.1032 27.1552 12.1763 26.7107 12.9674 25.9196C13.7586 25.1284 14.2031 24.0554 14.2031 22.9365C14.2031 21.8176 13.7586 20.7445 12.9674 19.9534C12.1763 19.1622 11.1032 18.7177 9.98434 18.7177ZM9.98434 20.4052C10.6557 20.4052 11.2995 20.6719 11.7742 21.1466C12.2489 21.6213 12.5156 22.2651 12.5156 22.9365C12.5156 23.6078 12.2489 24.2516 11.7742 24.7263C11.2995 25.201 10.6557 25.4677 9.98434 25.4677C9.31301 25.4677 8.66918 25.201 8.19448 24.7263C7.71978 24.2516 7.45309 23.6078 7.45309 22.9365C7.45309 22.2651 7.71978 21.6213 8.19448 21.1466C8.66918 20.6719 9.31301 20.4052 9.98434 20.4052ZM17.4273 6.22122L17.5702 6.26622L22.0488 8.03697H25.0638C25.2596 8.03697 25.4497 8.08647 25.6185 8.1776L25.7422 8.2541L25.8232 8.3171L29.0362 11.0677C29.088 11.1127 29.1352 11.16 29.178 11.2117L29.2387 11.2927L30.8272 13.0005C30.9409 13.1657 31.01 13.3575 31.0279 13.5573C31.0458 13.7571 31.0119 13.9582 30.9295 14.141C30.8471 14.3239 30.7189 14.4824 30.5573 14.6013C30.3957 14.7201 30.2062 14.7953 30.0071 14.8196L29.8665 14.8286H8.49934C7.85472 14.8286 7.34397 14.9242 7.34397 14.2796C7.34397 14.0692 7.40022 13.8633 7.50709 13.6833L7.59709 13.5551L8.26197 12.7147C8.45209 12.4751 8.72659 12.321 9.02584 12.2816L9.17659 12.2715H11.5852L16.2405 6.61047C16.5296 6.25947 16.9942 6.11097 17.4273 6.22122ZM23.634 11.6561H18.3667L18.2857 11.6595C18.0794 11.6788 17.8875 11.7734 17.7465 11.9252C17.6054 12.077 17.5252 12.2754 17.521 12.4825C17.5169 12.6897 17.5891 12.8911 17.7239 13.0485C17.8587 13.2058 18.0466 13.3081 18.252 13.3357L18.3667 13.3436H23.634L23.7161 13.3402C23.9331 13.3208 24.1342 13.2183 24.2773 13.0539C24.4204 12.8896 24.4944 12.6763 24.4838 12.4587C24.4732 12.2411 24.3788 12.036 24.2204 11.8864C24.062 11.7368 23.8518 11.6543 23.634 11.6561ZM32.3527 8.99997C32.5665 9.00004 32.7723 9.08125 32.9285 9.22719C33.0847 9.37313 33.1797 9.57293 33.1942 9.78621C33.2088 9.99949 33.1419 10.2103 33.007 10.3762C32.8721 10.542 32.6793 10.6505 32.4675 10.6796L32.3527 10.6875H29.5402C29.3265 10.6871 29.1209 10.6057 28.965 10.4597C28.809 10.3136 28.7142 10.1139 28.6998 9.90067C28.6853 9.68748 28.7523 9.47675 28.8873 9.31104C29.0222 9.14533 29.2149 9.03697 29.4266 9.00785L29.5402 8.99997H32.3527Z" fill="#FF5A00"/>
</g>
</svg>
