<svg width="36" height="36" viewBox="0 0 36 36" fill="none" xmlns="http://www.w3.org/2000/svg">
<g id="&#232;&#174;&#162;&#229;&#141;&#149; 1">
<path id="Vector" d="M21.2271 2.41345H14.4121C13.5762 2.41345 12.9079 3.15718 12.9079 4.07646C12.9079 4.99787 13.5774 5.74379 14.4121 5.74379H21.2692C22.0631 5.74379 22.7324 4.99787 22.7324 4.07646C22.7325 3.15714 22.064 2.41345 21.2271 2.41345ZM28.627 3.52341H25.2333C25.2678 3.70562 25.2878 3.88993 25.2878 4.07646C25.2888 5.47631 24.2733 6.85403 23.0654 6.85403H12.6393C11.3681 6.85403 10.3512 5.47631 10.3512 4.07646C10.3524 3.88993 10.3724 3.70562 10.4069 3.52341H6.97217C4.21122 3.52341 3.5329 5.08867 3.5329 7.34668V29.7134C3.5329 32.1391 4.50424 33.4966 7.18064 33.4966H28.4183C31.0948 33.4966 32.3958 32.4322 32.3958 29.7147V7.34664C32.3961 5.08885 31.178 3.52359 28.6271 3.52359L28.627 3.52341ZM25.1403 25.6071H10.3824C9.83841 25.6071 9.2954 24.9398 9.2954 24.395C9.2954 23.852 9.75499 23.3869 10.299 23.3869H25.0148C25.5586 23.3869 26.0182 23.8097 26.0594 24.395C26.0594 24.94 25.6841 25.6071 25.1403 25.6071ZM25.2003 19.6849H10.4422C9.89813 19.6849 9.55176 19.1 9.55176 18.5548C9.55176 18.0097 10.0116 17.4647 10.5553 17.4647H25.2712C25.8152 17.4647 26.2747 17.9697 26.3158 18.5548C26.3158 19.0998 25.7431 19.6849 25.2003 19.6849ZM25.2003 13.6025H10.4422C9.89813 13.6025 9.55176 13.0174 9.55176 12.4724C9.55176 11.9273 10.0116 11.3823 10.5553 11.3823H25.2712C25.8152 11.3823 26.2747 11.8875 26.3158 12.4724C26.3158 13.0174 25.7431 13.6025 25.2003 13.6025Z" fill="#EA5E13"/>
</g>
</svg>
