<svg width="38" height="38" viewBox="0 0 38 38" fill="none" xmlns="http://www.w3.org/2000/svg">
<g id="&#229;&#160;&#134;&#229;&#158;&#155;&#230;&#156;&#186; 1">
<path id="Vector" d="M26.98 2.84998C26.7784 2.84998 26.5851 2.93005 26.4426 3.07257C26.3001 3.2151 26.22 3.40841 26.22 3.60998V32.3H29.26C29.4616 32.3 29.6549 32.2199 29.7974 32.0774C29.9399 31.9348 30.02 31.7415 30.02 31.54V15.01H37.24C37.3408 15.01 37.4374 14.9699 37.5087 14.8987C37.58 14.8274 37.62 14.7308 37.62 14.63V13.7868C37.62 13.702 37.5917 13.6197 37.5395 13.5529C37.4873 13.4861 37.4144 13.4387 37.3322 13.4182L30.02 11.59V3.60998C30.02 3.40841 29.9399 3.2151 29.7974 3.07257C29.6549 2.93005 29.4616 2.84998 29.26 2.84998H26.98ZM21.66 28.31C20.086 28.31 18.81 29.586 18.81 31.16C18.81 32.7339 20.086 34.01 21.66 34.01C23.2342 34.01 24.51 32.7339 24.51 31.16C24.51 29.586 23.2342 28.31 21.66 28.31ZM3.23 28.31C1.65604 28.31 0.380005 29.586 0.380005 31.16C0.380005 32.7339 1.65604 34.01 3.23 34.01C4.80415 34.01 6.08 32.7339 6.08 31.16C6.08 29.586 4.80415 28.31 3.23 28.31ZM5.3713 9.11998C4.89227 9.11994 4.4309 9.30086 4.07957 9.6265C3.72824 9.95215 3.51289 10.3985 3.47662 10.8761L2.47 24.13H2.28C1.23082 24.13 0.380005 24.9806 0.380005 26.03V27.8471C1.1721 27.1637 2.18383 26.7884 3.23 26.79C5.64357 26.79 7.6 28.7464 7.6 31.16C7.60033 31.5449 7.54986 31.9282 7.4499 32.3H17.4401C17.3401 31.9282 17.2897 31.5449 17.29 31.16C17.29 28.7464 19.2464 26.79 21.66 26.79C24.0734 26.79 26.03 28.7464 26.03 31.16C26.0303 31.5449 25.9797 31.9282 25.8797 32.3H26.22V26.6L23.56 25.84L22.99 24.13L17.7555 10.3455C17.6187 9.98511 17.3754 9.67489 17.0581 9.45601C16.7408 9.23712 16.3645 9.11992 15.979 9.11998H5.3713ZM6.08 12.35H14.82L18.05 20.9L16.34 22.42V24.13H14.06V22.61C14.06 22.4084 13.9799 22.2151 13.8374 22.0726C13.6949 21.93 13.5016 21.85 13.3 21.85H9.12V18.62C9.12 18.4184 9.03993 18.2251 8.89741 18.0826C8.75488 17.94 8.56157 17.86 8.36 17.86H7.6C7.39844 17.86 7.20513 17.94 7.0626 18.0826C6.92008 18.2251 6.84 18.4184 6.84 18.62V24.13H5.32L6.08 12.35Z" fill="#FF5A00"/>
</g>
</svg>
