<svg width="34" height="34" viewBox="0 0 34 34" fill="none" xmlns="http://www.w3.org/2000/svg">
<path id="Vector" d="M24.2317 32.381C24.0159 32.327 23.773 32.3 23.5571 32.246C20.9127 31.6254 18.5381 30.3032 16.0286 28.927C14.5984 28.1444 13.1143 27.3349 11.5762 26.6603C10.6587 26.2556 9.55238 25.8238 8.36508 25.7159C6.74603 25.581 4.80317 26.1206 3.07619 26.7413C1.67302 24.7175 0.674603 22.3968 0.242857 19.8873C4.74921 20.8048 9.87619 21.3444 14.1937 21.3714H14.7603C15.9206 21.3714 17.1079 21.3444 18.2413 21.3175C23.3413 21.2095 28.5762 21.1016 33.6492 20.427C32.5429 25.7429 28.981 30.1413 24.2317 32.381ZM17 0C21.5063 0 25.6079 1.75397 28.6302 4.64127C26.8222 5.12698 24.9063 5.96349 22.9635 7.12381C21.2365 8.17619 19.5635 9.36349 17.9714 10.5508C16.7302 11.4413 15.4619 12.3857 14.1937 13.2222C10.8476 15.381 8.14921 16.0286 5.93651 15.1651C5.2619 14.8952 4.74921 14.5175 4.39841 14.0587C3.93968 13.4111 3.77778 12.5476 3.66984 11.7111C3.45397 10.173 3.29206 8.60794 3.2381 7.01587C6.34127 2.77937 11.3603 0 17 0ZM2.18571 8.6619C2.26667 9.74127 2.3746 10.8206 2.50952 11.9C2.64444 12.8714 2.83333 13.8968 3.45397 14.7603C3.9127 15.4079 4.61429 15.9206 5.50476 16.2444C6.26032 16.5413 7.06984 16.6762 7.93333 16.6762C9.95714 16.6762 12.2238 15.8397 14.8143 14.1667C16.1365 13.3032 17.4048 12.3857 18.646 11.4683C20.2381 10.3079 21.8571 9.12063 23.5571 8.09524C25.6349 6.85397 27.6587 5.99048 29.5746 5.55873C32.327 8.60794 34 12.6016 34 17C34 17.7825 33.946 18.5381 33.8381 19.2667C28.7381 19.9683 23.3952 20.0762 18.2143 20.1841C16.8921 20.2111 15.5429 20.2381 14.1937 20.2381C9.82222 20.2111 4.5873 19.6175 0.0809524 18.7C0.0269841 18.1333 0 17.5667 0 17C0 13.9778 0.809524 11.1175 2.18571 8.6619ZM3.80476 27.6857C5.34286 27.173 6.9619 26.7413 8.28413 26.8492C9.30952 26.9302 10.3079 27.3349 11.1444 27.6857C12.6286 28.3333 14.0857 29.1429 15.4889 29.9254C17.7016 31.1397 19.9683 32.381 22.4238 33.1095C20.7238 33.6762 18.9159 34 17.027 34C11.6841 34 6.90794 31.5444 3.80476 27.6857Z" fill="#EA5E13"/>
</svg>
