<svg width="185" height="90" viewBox="0 0 185 90" fill="none" xmlns="http://www.w3.org/2000/svg">
<g id="&#228;&#187;&#170;&#232;&#161;&#168;&#231;&#155;&#152;" clip-path="url(#clip0_228_155)">
<g id="Group 880">
<g id="Group 879">
<g id="Ellipse 9">
<mask id="path-1-inside-1_228_155" fill="white">
<path d="M157.013 79.2955C157.013 70.8752 155.354 62.5373 152.132 54.7579C148.91 46.9786 144.187 39.9101 138.233 33.956C132.279 28.0019 125.21 23.2789 117.431 20.0566C109.651 16.8343 101.313 15.1758 92.8931 15.1758C84.4728 15.1758 76.1349 16.8343 68.3556 20.0566C60.5762 23.2789 53.5077 28.0019 47.5537 33.956C41.5996 39.9101 36.8766 46.9786 33.6543 54.7579C30.4319 62.5373 28.7734 70.8752 28.7734 79.2955H37.6417C37.6417 72.0398 39.0709 64.8551 41.8475 58.1517C44.6241 51.4483 48.6939 45.3574 53.8245 40.2268C58.9551 35.0963 65.0459 31.0265 71.7493 28.2499C78.4527 25.4732 85.6374 24.0441 92.8931 24.0441C100.149 24.0441 107.334 25.4732 114.037 28.2499C120.74 31.0265 126.831 35.0963 131.962 40.2268C137.092 45.3574 141.162 51.4483 143.939 58.1517C146.715 64.8551 148.145 72.0398 148.145 79.2955H157.013Z"/>
</mask>
<path d="M157.013 79.2955C157.013 70.8752 155.354 62.5373 152.132 54.7579C148.91 46.9786 144.187 39.9101 138.233 33.956C132.279 28.0019 125.21 23.2789 117.431 20.0566C109.651 16.8343 101.313 15.1758 92.8931 15.1758C84.4728 15.1758 76.1349 16.8343 68.3556 20.0566C60.5762 23.2789 53.5077 28.0019 47.5537 33.956C41.5996 39.9101 36.8766 46.9786 33.6543 54.7579C30.4319 62.5373 28.7734 70.8752 28.7734 79.2955H37.6417C37.6417 72.0398 39.0709 64.8551 41.8475 58.1517C44.6241 51.4483 48.6939 45.3574 53.8245 40.2268C58.9551 35.0963 65.0459 31.0265 71.7493 28.2499C78.4527 25.4732 85.6374 24.0441 92.8931 24.0441C100.149 24.0441 107.334 25.4732 114.037 28.2499C120.74 31.0265 126.831 35.0963 131.962 40.2268C137.092 45.3574 141.162 51.4483 143.939 58.1517C146.715 64.8551 148.145 72.0398 148.145 79.2955H157.013Z" stroke="#FF6107" stroke-width="16.052" mask="url(#path-1-inside-1_228_155)"/>
</g>
<g id="Ellipse 10">
<mask id="path-2-inside-2_228_155" fill="white">
<path d="M28.7684 79.2955C28.7684 68.4271 31.5311 57.737 36.7968 48.2294C42.0626 38.7218 49.6586 30.7088 58.8715 24.9429C68.0844 19.177 78.6117 15.8475 89.4646 15.2672C100.317 14.6869 111.14 16.8749 120.915 21.6255L117.039 29.6017C108.615 25.5082 99.2899 23.6229 89.9381 24.1229C80.5862 24.6229 71.5149 27.4919 63.5763 32.4603C55.6376 37.4287 49.0922 44.3335 44.5547 52.5261C40.0173 60.7187 37.6367 69.9303 37.6367 79.2955H28.7684Z"/>
</mask>
<path d="M28.7684 79.2955C28.7684 68.4271 31.5311 57.737 36.7968 48.2294C42.0626 38.7218 49.6586 30.7088 58.8715 24.9429C68.0844 19.177 78.6117 15.8475 89.4646 15.2672C100.317 14.6869 111.14 16.8749 120.915 21.6255L117.039 29.6017C108.615 25.5082 99.2899 23.6229 89.9381 24.1229C80.5862 24.6229 71.5149 27.4919 63.5763 32.4603C55.6376 37.4287 49.0922 44.3335 44.5547 52.5261C40.0173 60.7187 37.6367 69.9303 37.6367 79.2955H28.7684Z" stroke="#FFEB85" stroke-width="16.052" mask="url(#path-2-inside-2_228_155)"/>
</g>
<g id="Ellipse 11">
<mask id="path-3-inside-3_228_155" fill="white">
<path d="M121.857 22.093C130.932 26.6888 138.783 33.3778 144.762 41.6075L137.588 46.82C132.436 39.7286 125.67 33.9648 117.851 30.0046L121.857 22.093Z"/>
</mask>
<path d="M121.857 22.093C130.932 26.6888 138.783 33.3778 144.762 41.6075L137.588 46.82C132.436 39.7286 125.67 33.9648 117.851 30.0046L121.857 22.093Z" stroke="#FF9735" stroke-width="16.052" mask="url(#path-3-inside-3_228_155)"/>
</g>
<line id="Line 1" x1="23.0547" y1="78.7933" x2="41.3746" y2="78.7933" stroke="#BFEAFF" stroke-width="1.00325"/>
<line id="Line 6" x1="143.273" y1="78.7933" x2="161.593" y2="78.7933" stroke="#BFEAFF" stroke-width="1.00325"/>
<line id="Line 2" x1="37.0619" y1="37.7026" x2="51.8456" y2="48.5221" stroke="#BFEAFF" stroke-width="1.00325"/>
<line id="Line 3" x1="68.1773" y1="15.0122" x2="74.1525" y2="32.3303" stroke="#BFEAFF" stroke-width="1.00325"/>
<line id="Line 4" x1="123.416" y1="17.6926" x2="115.099" y2="34.0159" stroke="#BFEAFF" stroke-width="1.00325"/>
<line id="Line 5" x1="149.052" y1="38.477" x2="134.412" y2="49.4903" stroke="#BFEAFF" stroke-width="1.00325"/>
</g>
<path id="0" d="M9.34403 78.668C9.34403 79.98 9.52403 80.928 9.88403 81.512C10.252 82.088 10.788 82.376 11.492 82.376C12.196 82.376 12.728 82.088 13.088 81.512C13.456 80.928 13.64 79.98 13.64 78.668C13.64 77.356 13.456 76.412 13.088 75.836C12.728 75.252 12.196 74.96 11.492 74.96C10.788 74.96 10.252 75.252 9.88403 75.836C9.52403 76.412 9.34403 77.356 9.34403 78.668ZM8.43203 78.668C8.43203 77.884 8.50403 77.212 8.64803 76.652C8.79203 76.092 8.99603 75.632 9.26003 75.272C9.52403 74.912 9.84403 74.648 10.22 74.48C10.596 74.304 11.02 74.216 11.492 74.216C11.964 74.216 12.388 74.304 12.764 74.48C13.14 74.648 13.46 74.912 13.724 75.272C13.988 75.632 14.192 76.092 14.336 76.652C14.48 77.212 14.552 77.884 14.552 78.668C14.552 79.452 14.48 80.124 14.336 80.684C14.192 81.244 13.988 81.704 13.724 82.064C13.46 82.424 13.14 82.692 12.764 82.868C12.388 83.036 11.964 83.12 11.492 83.12C11.02 83.12 10.596 83.036 10.22 82.868C9.84403 82.692 9.52403 82.424 9.26003 82.064C8.99603 81.704 8.79203 81.244 8.64803 80.684C8.50403 80.124 8.43203 79.452 8.43203 78.668Z" fill="#110600" fill-opacity="0.8"/>
<path id="40" d="M62.1961 8.216H65.2681V3.248H65.2321L62.1961 8.216ZM66.1321 8.96V11H65.2681V8.96H61.2841V8.216L64.8601 2.336H66.1321V8.216H67.6201V8.96H66.1321ZM69.6761 6.668C69.6761 7.98 69.8561 8.928 70.2161 9.512C70.5841 10.088 71.1201 10.376 71.8241 10.376C72.5281 10.376 73.0601 10.088 73.4201 9.512C73.7881 8.928 73.9721 7.98 73.9721 6.668C73.9721 5.356 73.7881 4.412 73.4201 3.836C73.0601 3.252 72.5281 2.96 71.8241 2.96C71.1201 2.96 70.5841 3.252 70.2161 3.836C69.8561 4.412 69.6761 5.356 69.6761 6.668ZM68.7641 6.668C68.7641 5.884 68.8361 5.212 68.9801 4.652C69.1241 4.092 69.3281 3.632 69.5921 3.272C69.8561 2.912 70.1761 2.648 70.5521 2.48C70.9281 2.304 71.3521 2.216 71.8241 2.216C72.2961 2.216 72.7201 2.304 73.0961 2.48C73.4721 2.648 73.7921 2.912 74.0561 3.272C74.3201 3.632 74.5241 4.092 74.6681 4.652C74.8121 5.212 74.8841 5.884 74.8841 6.668C74.8841 7.452 74.8121 8.124 74.6681 8.684C74.5241 9.244 74.3201 9.704 74.0561 10.064C73.7921 10.424 73.4721 10.692 73.0961 10.868C72.7201 11.036 72.2961 11.12 71.8241 11.12C71.3521 11.12 70.9281 11.036 70.5521 10.868C70.1761 10.692 69.8561 10.424 69.5921 10.064C69.3281 9.704 69.1241 9.244 68.9801 8.684C68.8361 8.124 68.7641 7.452 68.7641 6.668Z" fill="#110600" fill-opacity="0.8"/>
<path id="60" d="M128.364 8.36C128.364 8.024 128.312 7.728 128.208 7.472C128.104 7.216 127.968 7 127.8 6.824C127.632 6.648 127.436 6.516 127.212 6.428C126.996 6.34 126.776 6.296 126.552 6.296C126.288 6.296 126.024 6.348 125.76 6.452C125.504 6.548 125.272 6.68 125.064 6.848C124.856 7.016 124.684 7.212 124.548 7.436C124.412 7.66 124.336 7.896 124.32 8.144C124.328 8.448 124.384 8.736 124.488 9.008C124.592 9.28 124.732 9.52 124.908 9.728C125.092 9.928 125.308 10.088 125.556 10.208C125.812 10.32 126.096 10.376 126.408 10.376C126.712 10.376 126.984 10.328 127.224 10.232C127.472 10.128 127.68 9.988 127.848 9.812C128.016 9.628 128.144 9.416 128.232 9.176C128.32 8.928 128.364 8.656 128.364 8.36ZM128.436 3.452C128.236 3.292 128.024 3.172 127.8 3.092C127.576 3.004 127.296 2.96 126.96 2.96C126.616 2.96 126.284 3.032 125.964 3.176C125.652 3.32 125.372 3.54 125.124 3.836C124.876 4.132 124.676 4.508 124.524 4.964C124.38 5.42 124.304 5.96 124.296 6.584C124.424 6.448 124.564 6.32 124.716 6.2C124.868 6.072 125.04 5.96 125.232 5.864C125.424 5.768 125.636 5.692 125.868 5.636C126.1 5.58 126.368 5.552 126.672 5.552C126.992 5.552 127.308 5.612 127.62 5.732C127.932 5.844 128.212 6.016 128.46 6.248C128.708 6.472 128.904 6.76 129.048 7.112C129.2 7.464 129.276 7.872 129.276 8.336C129.276 8.8 129.196 9.208 129.036 9.56C128.884 9.904 128.676 10.192 128.412 10.424C128.156 10.656 127.86 10.832 127.524 10.952C127.188 11.064 126.84 11.12 126.48 11.12C126.032 11.12 125.616 11.052 125.232 10.916C124.856 10.772 124.528 10.544 124.248 10.232C123.976 9.912 123.764 9.496 123.612 8.984C123.46 8.472 123.384 7.848 123.384 7.112C123.384 6.432 123.46 5.796 123.612 5.204C123.764 4.604 123.988 4.084 124.284 3.644C124.588 3.196 124.96 2.848 125.4 2.6C125.84 2.344 126.352 2.216 126.936 2.216C127.408 2.216 127.804 2.272 128.124 2.384C128.452 2.488 128.68 2.6 128.808 2.72L128.436 3.452ZM131.512 6.668C131.512 7.98 131.692 8.928 132.052 9.512C132.42 10.088 132.956 10.376 133.66 10.376C134.364 10.376 134.896 10.088 135.256 9.512C135.624 8.928 135.808 7.98 135.808 6.668C135.808 5.356 135.624 4.412 135.256 3.836C134.896 3.252 134.364 2.96 133.66 2.96C132.956 2.96 132.42 3.252 132.052 3.836C131.692 4.412 131.512 5.356 131.512 6.668ZM130.6 6.668C130.6 5.884 130.672 5.212 130.816 4.652C130.96 4.092 131.164 3.632 131.428 3.272C131.692 2.912 132.012 2.648 132.388 2.48C132.764 2.304 133.188 2.216 133.66 2.216C134.132 2.216 134.556 2.304 134.932 2.48C135.308 2.648 135.628 2.912 135.892 3.272C136.156 3.632 136.36 4.092 136.504 4.652C136.648 5.212 136.72 5.884 136.72 6.668C136.72 7.452 136.648 8.124 136.504 8.684C136.36 9.244 136.156 9.704 135.892 10.064C135.628 10.424 135.308 10.692 134.932 10.868C134.556 11.036 134.132 11.12 133.66 11.12C133.188 11.12 132.764 11.036 132.388 10.868C132.012 10.692 131.692 10.424 131.428 10.064C131.164 9.704 130.96 9.244 130.816 8.684C130.672 8.124 130.6 7.452 130.6 6.668Z" fill="#110600" fill-opacity="0.8"/>
<path id="80" d="M165.989 33.328C165.989 33.088 165.933 32.884 165.821 32.716C165.717 32.54 165.577 32.396 165.401 32.284C165.225 32.172 165.025 32.092 164.801 32.044C164.577 31.988 164.345 31.96 164.105 31.96C163.865 31.96 163.633 31.988 163.409 32.044C163.185 32.092 162.985 32.172 162.809 32.284C162.633 32.396 162.489 32.54 162.377 32.716C162.273 32.884 162.221 33.088 162.221 33.328C162.221 33.56 162.285 33.768 162.413 33.952C162.541 34.136 162.701 34.3 162.893 34.444C163.085 34.58 163.289 34.696 163.505 34.792C163.729 34.88 163.929 34.948 164.105 34.996C164.345 34.94 164.577 34.86 164.801 34.756C165.033 34.652 165.233 34.532 165.401 34.396C165.577 34.252 165.717 34.092 165.821 33.916C165.933 33.732 165.989 33.536 165.989 33.328ZM161.861 37.744C161.861 37.936 161.905 38.132 161.993 38.332C162.081 38.524 162.213 38.7 162.389 38.86C162.573 39.012 162.805 39.136 163.085 39.232C163.373 39.328 163.713 39.376 164.105 39.376C164.497 39.376 164.833 39.328 165.113 39.232C165.401 39.136 165.633 39.012 165.809 38.86C165.993 38.7 166.129 38.524 166.217 38.332C166.305 38.132 166.349 37.936 166.349 37.744C166.349 37.496 166.289 37.276 166.169 37.084C166.049 36.884 165.881 36.708 165.665 36.556C165.449 36.396 165.193 36.256 164.897 36.136C164.609 36.008 164.293 35.888 163.949 35.776C163.685 35.888 163.425 36.008 163.169 36.136C162.921 36.256 162.701 36.396 162.509 36.556C162.317 36.708 162.161 36.884 162.041 37.084C161.921 37.276 161.861 37.496 161.861 37.744ZM167.261 37.744C167.261 38.072 167.197 38.38 167.069 38.668C166.941 38.956 166.745 39.208 166.481 39.424C166.217 39.64 165.885 39.812 165.485 39.94C165.093 40.06 164.633 40.12 164.105 40.12C163.577 40.12 163.113 40.06 162.713 39.94C162.321 39.812 161.993 39.64 161.729 39.424C161.465 39.208 161.269 38.956 161.141 38.668C161.013 38.38 160.949 38.072 160.949 37.744C160.949 37.472 160.997 37.22 161.093 36.988C161.197 36.748 161.333 36.532 161.501 36.34C161.677 36.14 161.881 35.964 162.113 35.812C162.345 35.652 162.589 35.512 162.845 35.392V35.368C162.365 35.184 161.989 34.92 161.717 34.576C161.445 34.232 161.309 33.832 161.309 33.376C161.309 33.024 161.377 32.712 161.513 32.44C161.657 32.168 161.853 31.944 162.101 31.768C162.357 31.584 162.653 31.448 162.989 31.36C163.333 31.264 163.705 31.216 164.105 31.216C164.505 31.216 164.873 31.264 165.209 31.36C165.553 31.448 165.849 31.584 166.097 31.768C166.353 31.944 166.549 32.168 166.685 32.44C166.829 32.712 166.901 33.024 166.901 33.376C166.901 33.832 166.765 34.232 166.493 34.576C166.221 34.92 165.845 35.184 165.365 35.368V35.392C165.621 35.488 165.865 35.608 166.097 35.752C166.329 35.896 166.529 36.068 166.697 36.268C166.873 36.468 167.009 36.692 167.105 36.94C167.209 37.18 167.261 37.448 167.261 37.744ZM169.293 35.668C169.293 36.98 169.473 37.928 169.833 38.512C170.201 39.088 170.737 39.376 171.441 39.376C172.145 39.376 172.677 39.088 173.037 38.512C173.405 37.928 173.589 36.98 173.589 35.668C173.589 34.356 173.405 33.412 173.037 32.836C172.677 32.252 172.145 31.96 171.441 31.96C170.737 31.96 170.201 32.252 169.833 32.836C169.473 33.412 169.293 34.356 169.293 35.668ZM168.381 35.668C168.381 34.884 168.453 34.212 168.597 33.652C168.741 33.092 168.945 32.632 169.209 32.272C169.473 31.912 169.793 31.648 170.169 31.48C170.545 31.304 170.969 31.216 171.441 31.216C171.913 31.216 172.337 31.304 172.713 31.48C173.089 31.648 173.409 31.912 173.673 32.272C173.937 32.632 174.141 33.092 174.285 33.652C174.429 34.212 174.501 34.884 174.501 35.668C174.501 36.452 174.429 37.124 174.285 37.684C174.141 38.244 173.937 38.704 173.673 39.064C173.409 39.424 173.089 39.692 172.713 39.868C172.337 40.036 171.913 40.12 171.441 40.12C170.969 40.12 170.545 40.036 170.169 39.868C169.793 39.692 169.473 39.424 169.209 39.064C168.945 38.704 168.741 38.244 168.597 37.684C168.453 37.124 168.381 36.452 168.381 35.668Z" fill="#110600" fill-opacity="0.8"/>
<path id="100" d="M163.61 84V83.256H165.11V76.212L163.442 76.38V75.816C163.746 75.728 164.05 75.636 164.354 75.54C164.666 75.444 164.918 75.336 165.11 75.216H165.974V83.256H167.45V84H163.61ZM170.598 79.668C170.598 80.98 170.778 81.928 171.138 82.512C171.506 83.088 172.042 83.376 172.746 83.376C173.45 83.376 173.982 83.088 174.342 82.512C174.71 81.928 174.894 80.98 174.894 79.668C174.894 78.356 174.71 77.412 174.342 76.836C173.982 76.252 173.45 75.96 172.746 75.96C172.042 75.96 171.506 76.252 171.138 76.836C170.778 77.412 170.598 78.356 170.598 79.668ZM169.686 79.668C169.686 78.884 169.758 78.212 169.902 77.652C170.046 77.092 170.25 76.632 170.514 76.272C170.778 75.912 171.098 75.648 171.474 75.48C171.85 75.304 172.274 75.216 172.746 75.216C173.218 75.216 173.642 75.304 174.018 75.48C174.394 75.648 174.714 75.912 174.978 76.272C175.242 76.632 175.446 77.092 175.59 77.652C175.734 78.212 175.806 78.884 175.806 79.668C175.806 80.452 175.734 81.124 175.59 81.684C175.446 82.244 175.242 82.704 174.978 83.064C174.714 83.424 174.394 83.692 174.018 83.868C173.642 84.036 173.218 84.12 172.746 84.12C172.274 84.12 171.85 84.036 171.474 83.868C171.098 83.692 170.778 83.424 170.514 83.064C170.25 82.704 170.046 82.244 169.902 81.684C169.758 81.124 169.686 80.452 169.686 79.668ZM177.934 79.668C177.934 80.98 178.114 81.928 178.474 82.512C178.842 83.088 179.378 83.376 180.082 83.376C180.786 83.376 181.318 83.088 181.678 82.512C182.046 81.928 182.23 80.98 182.23 79.668C182.23 78.356 182.046 77.412 181.678 76.836C181.318 76.252 180.786 75.96 180.082 75.96C179.378 75.96 178.842 76.252 178.474 76.836C178.114 77.412 177.934 78.356 177.934 79.668ZM177.022 79.668C177.022 78.884 177.094 78.212 177.238 77.652C177.382 77.092 177.586 76.632 177.85 76.272C178.114 75.912 178.434 75.648 178.81 75.48C179.186 75.304 179.61 75.216 180.082 75.216C180.554 75.216 180.978 75.304 181.354 75.48C181.73 75.648 182.05 75.912 182.314 76.272C182.578 76.632 182.782 77.092 182.926 77.652C183.07 78.212 183.142 78.884 183.142 79.668C183.142 80.452 183.07 81.124 182.926 81.684C182.782 82.244 182.578 82.704 182.314 83.064C182.05 83.424 181.73 83.692 181.354 83.868C180.978 84.036 180.554 84.12 180.082 84.12C179.61 84.12 179.186 84.036 178.81 83.868C178.434 83.692 178.114 83.424 177.85 83.064C177.586 82.704 177.382 82.244 177.238 81.684C177.094 81.124 177.022 80.452 177.022 79.668Z" fill="#110600" fill-opacity="0.8"/>
<path id="20" d="M26.0294 40H20.4014V39.088C20.6494 38.584 20.9374 38.152 21.2654 37.792C21.6014 37.424 21.9414 37.1 22.2854 36.82C22.6374 36.54 22.9814 36.284 23.3174 36.052C23.6614 35.82 23.9654 35.584 24.2294 35.344C24.5014 35.104 24.7174 34.844 24.8774 34.564C25.0454 34.276 25.1294 33.936 25.1294 33.544C25.1294 33.04 24.9734 32.652 24.6614 32.38C24.3574 32.1 23.9294 31.96 23.3774 31.96C23.0654 31.96 22.7894 32.02 22.5494 32.14C22.3094 32.252 22.1054 32.4 21.9374 32.584C21.7694 32.76 21.6334 32.96 21.5294 33.184C21.4334 33.408 21.3694 33.628 21.3374 33.844L20.4854 33.652C20.5574 33.356 20.6574 33.064 20.7854 32.776C20.9134 32.48 21.0894 32.216 21.3134 31.984C21.5454 31.752 21.8294 31.568 22.1654 31.432C22.5094 31.288 22.9214 31.216 23.4014 31.216C23.7534 31.216 24.0894 31.268 24.4094 31.372C24.7294 31.468 25.0094 31.616 25.2494 31.816C25.4894 32.008 25.6814 32.248 25.8254 32.536C25.9694 32.824 26.0414 33.152 26.0414 33.52C26.0414 33.96 25.9454 34.352 25.7534 34.696C25.5614 35.04 25.3174 35.36 25.0214 35.656C24.7254 35.944 24.3934 36.22 24.0254 36.484C23.6654 36.748 23.3094 37.02 22.9574 37.3C22.6054 37.58 22.2814 37.88 21.9854 38.2C21.6894 38.512 21.4654 38.864 21.3134 39.256H26.0294V40ZM28.4573 35.668C28.4573 36.98 28.6373 37.928 28.9973 38.512C29.3653 39.088 29.9013 39.376 30.6053 39.376C31.3093 39.376 31.8413 39.088 32.2013 38.512C32.5693 37.928 32.7533 36.98 32.7533 35.668C32.7533 34.356 32.5693 33.412 32.2013 32.836C31.8413 32.252 31.3093 31.96 30.6053 31.96C29.9013 31.96 29.3653 32.252 28.9973 32.836C28.6373 33.412 28.4573 34.356 28.4573 35.668ZM27.5453 35.668C27.5453 34.884 27.6173 34.212 27.7613 33.652C27.9053 33.092 28.1093 32.632 28.3733 32.272C28.6373 31.912 28.9573 31.648 29.3333 31.48C29.7093 31.304 30.1333 31.216 30.6053 31.216C31.0773 31.216 31.5013 31.304 31.8773 31.48C32.2533 31.648 32.5733 31.912 32.8373 32.272C33.1013 32.632 33.3053 33.092 33.4493 33.652C33.5933 34.212 33.6653 34.884 33.6653 35.668C33.6653 36.452 33.5933 37.124 33.4493 37.684C33.3053 38.244 33.1013 38.704 32.8373 39.064C32.5733 39.424 32.2533 39.692 31.8773 39.868C31.5013 40.036 31.0773 40.12 30.6053 40.12C30.1333 40.12 29.7093 40.036 29.3333 39.868C28.9573 39.692 28.6373 39.424 28.3733 39.064C28.1093 38.704 27.9053 38.244 27.7613 37.684C27.6173 37.124 27.5453 36.452 27.5453 35.668Z" fill="#110600" fill-opacity="0.8"/>
<g id="Group 878">
<circle id="Ellipse 18" cx="113.173" cy="37.9521" r="1.78836" fill="#EA5E13" fill-opacity="0.5" stroke="#EA5E13" stroke-width="1.00325"/>
<circle id="Ellipse 16" cx="54.9697" cy="50.5048" r="1.78836" fill="#EA5E13" fill-opacity="0.5" stroke="#EA5E13" stroke-width="1.00325"/>
<circle id="Ellipse 22" cx="45.8369" cy="79.038" r="1.78836" fill="#EA5E13" fill-opacity="0.5" stroke="#EA5E13" stroke-width="1.00325"/>
<circle id="Ellipse 17" cx="75.5165" cy="35.6689" r="1.78836" fill="#EA5E13" fill-opacity="0.5" stroke="#EA5E13" stroke-width="1.00325"/>
<circle id="Ellipse 20" cx="131.438" cy="51.6474" r="1.78836" fill="#EA5E13" fill-opacity="0.5" stroke="#EA5E13" stroke-width="1.00325"/>
<circle id="Ellipse 21" cx="139.423" cy="79.038" r="1.78836" fill="#EA5E13" fill-opacity="0.5" stroke="#EA5E13" stroke-width="1.00325"/>
</g>
</g>
</g>
<defs>
<clipPath id="clip0_228_155">
<rect width="185" height="90" fill="white"/>
</clipPath>
</defs>
</svg>
