<svg width="32" height="32" viewBox="0 0 32 32" fill="none" xmlns="http://www.w3.org/2000/svg">
<g id="&#230;&#160;&#135;&#231;&#173;&#190;&#230;&#137;&#147;&#229;&#141;&#176; 1" clip-path="url(#clip0_209_59)">
<path id="Vector" d="M9.84 20.92H22.15V23.38H9.84V20.92ZM9.84 24.596H18.474V27.06H9.838V24.596H9.84ZM29.154 9.758H27.108V2.846C27.1076 2.09097 26.8074 1.36701 26.2733 0.833307C25.7392 0.299607 25.015 -0.00013198 24.26 7.02805e-07H7.76C7.38609 -0.000262059 7.01579 0.073158 6.67027 0.216065C6.32475 0.358973 6.01077 0.568566 5.74628 0.832867C5.48179 1.09717 5.27198 1.411 5.12883 1.75642C4.98568 2.10184 4.912 2.47209 4.912 2.846V9.758H2.846C2.0914 9.75866 1.36789 10.0587 0.834305 10.5923C0.30072 11.1259 0.000662035 11.8494 4.39408e-08 12.604V21.75C-6.56376e-05 22.1238 0.0735035 22.4939 0.216505 22.8392C0.359507 23.1845 0.569139 23.4983 0.833428 23.7626C1.09772 24.0269 1.41148 24.2365 1.75681 24.3795C2.10213 24.5225 2.47224 24.5961 2.846 24.596H4.914V29.154C4.91393 29.5278 4.9875 29.8979 5.13051 30.2432C5.27351 30.5885 5.48314 30.9023 5.74743 31.1666C6.01172 31.4309 6.32548 31.6405 6.67081 31.7835C7.01613 31.9265 7.38624 32.0001 7.76 32H24.26C25.015 32.0001 25.7392 31.7004 26.2733 31.1667C26.8074 30.633 27.1076 29.909 27.108 29.154V24.596H29.154C29.5278 24.5961 29.8979 24.5225 30.2432 24.3795C30.5885 24.2365 30.9023 24.0269 31.1666 23.7626C31.4309 23.4983 31.6405 23.1845 31.7835 22.8392C31.9265 22.4939 32.0001 22.1238 32 21.75V12.604C31.9997 11.8493 31.6998 11.1255 31.1661 10.5919C30.6325 10.0582 29.9087 9.75827 29.154 9.758ZM7.374 3.626C7.37393 3.46656 7.40529 3.30866 7.46628 3.16135C7.52726 3.01403 7.61668 2.88017 7.72943 2.76743C7.84217 2.65468 7.97603 2.56526 8.12334 2.50428C8.27066 2.44329 8.42856 2.41193 8.588 2.412H23.352C23.6739 2.41227 23.9825 2.54025 24.2101 2.76787C24.4377 2.99548 24.5657 3.30411 24.566 3.626V9.76H7.372V3.626H7.374ZM24.616 28.308C24.616 28.6305 24.4879 28.9398 24.2598 29.1678C24.0318 29.3959 23.7225 29.524 23.4 29.524H8.59C8.26784 29.5235 7.95906 29.3951 7.73145 29.1671C7.50384 28.9391 7.376 28.6302 7.376 28.308V18.476H24.616V28.308ZM26.49 15.99C26.0047 15.99 25.5392 15.7972 25.196 15.454C24.8528 15.1108 24.66 14.6453 24.66 14.16C24.66 13.6747 24.8528 13.2092 25.196 12.866C25.5392 12.5228 26.0047 12.33 26.49 12.33C26.9753 12.33 27.4408 12.5228 27.784 12.866C28.1272 13.2092 28.32 13.6747 28.32 14.16C28.32 14.6453 28.1272 15.1108 27.784 15.454C27.4408 15.7972 26.9753 15.99 26.49 15.99Z" fill="#FF5A00"/>
</g>
<defs>
<clipPath id="clip0_209_59">
<rect width="32" height="32" fill="white"/>
</clipPath>
</defs>
</svg>
