<svg width="36" height="36" viewBox="0 0 36 36" fill="none" xmlns="http://www.w3.org/2000/svg">
<g id="Frame 2136637699">
<g id="Group 913">
<g id="Group 910">
<rect id="Rectangle 1375" x="4.5" y="5.5" width="31" height="20.3333" stroke="#EA5E13"/>
<rect id="Rectangle 1376" x="4" y="5" width="32" height="2.66667" fill="#EA5E13"/>
<rect id="Rectangle 1377" x="12" y="17" width="5" height="9.33333" fill="#EA5E13"/>
<rect id="Rectangle 1378" x="22.5555" y="17" width="5" height="9.33333" fill="#EA5E13"/>
</g>
<g id="&#231;&#154;&#174;&#229;&#141;&#161; 1">
<path id="Vector" d="M14.0889 23.5111H14.963L14.7111 24.7407H14.1037V24.6814C14.1037 24.1777 13.8963 23.7333 13.5704 23.4073C13.2444 23.0814 12.8 22.874 12.2963 22.874C11.7926 22.874 11.3482 23.0814 11.0222 23.4073C10.6963 23.7333 10.4889 24.1777 10.4889 24.6814V24.7407H9.00741V19.7629H8.85926V24.7259H5.71852V24.6666C5.71852 24.1777 5.52593 23.7333 5.2 23.4073C4.88889 23.0962 4.44445 22.8888 3.94075 22.8888C3.45186 22.8888 3.00741 23.0814 2.68149 23.4073C2.35556 23.7333 2.16297 24.1777 2.16297 24.6666V24.7259H2.04445L1.67408 23.9407V23.1259H1.45186V22.5629H0.977783V21.1111H8.08889C8.10371 20.5185 8.13334 19.9555 8.20741 19.4073H11.4074C12.1185 20.0296 12.5778 20.7407 12.8593 21.4962C13.3482 21.6592 13.837 21.837 14.3259 21.9999C14.4889 22.2666 14.6074 22.5481 14.6815 22.8148H13.837L14.0889 23.5111ZM9.51112 22.2962V22.5185H10.0741V22.2962H9.51112ZM9.43704 19.8666V21.9555H10.8889L11.3778 21.5703H12.237C12.0444 20.9481 11.6889 20.3851 11.2296 19.8666H9.43704ZM3.00741 21.3333V22.2814H3.18519V21.3333H3.00741ZM1.54075 21.3333V22.2814H1.71852V21.3333H1.54075ZM4.47408 21.3333V22.2814H4.65186V21.3333H4.47408ZM5.95556 21.3333V22.2814H6.13334V21.3333H5.95556ZM7.42223 21.3333V22.2814H7.6V21.3333H7.42223ZM12.2963 23.3185C11.9259 23.3185 11.5852 23.4666 11.3333 23.7185C11.0963 23.9555 10.9333 24.2962 10.9333 24.6814C10.9333 25.0518 11.0815 25.3925 11.3333 25.6444C11.5852 25.8962 11.9111 26.0444 12.2963 26.0444C12.6667 26.0444 13.0074 25.8962 13.2593 25.6444C13.5111 25.3925 13.6593 25.0666 13.6593 24.6814C13.6593 24.3111 13.5111 23.9703 13.2593 23.7185C13.0074 23.4666 12.6667 23.3185 12.2963 23.3185ZM12.3111 24.2518C12.1926 24.2518 12.0889 24.2962 12.0148 24.3703C11.9407 24.4444 11.8963 24.5481 11.8963 24.6666C11.8963 24.7851 11.9407 24.8888 12.0148 24.9629C12.0889 25.037 12.1926 25.0814 12.3111 25.0814C12.4296 25.0814 12.5333 25.037 12.6074 24.9629C12.6815 24.8888 12.7259 24.7851 12.7259 24.6666C12.7259 24.5481 12.6815 24.4444 12.6074 24.3703C12.5333 24.2962 12.4296 24.2518 12.3111 24.2518ZM12.4444 24.5481C12.4148 24.5185 12.3704 24.4888 12.3111 24.4888C12.2667 24.4888 12.2074 24.5036 12.1778 24.5481C12.1482 24.5777 12.1185 24.6222 12.1185 24.6814C12.1185 24.7259 12.1333 24.7851 12.1778 24.8148C12.2074 24.8444 12.2519 24.874 12.3111 24.874C12.3556 24.874 12.4148 24.8592 12.4444 24.8148C12.4741 24.7851 12.5037 24.7407 12.5037 24.6814C12.4889 24.6222 12.4741 24.5777 12.4444 24.5481ZM12.7111 24.2518C12.6074 24.1481 12.4593 24.074 12.2963 24.074C12.1333 24.074 11.9852 24.1333 11.8815 24.2518C11.7778 24.3555 11.7037 24.5036 11.7037 24.6666C11.7037 24.8296 11.763 24.9777 11.8815 25.0814C11.9852 25.1851 12.1333 25.2592 12.2963 25.2592C12.4593 25.2592 12.6074 25.1999 12.7111 25.0814C12.8148 24.9777 12.8889 24.8296 12.8889 24.6666C12.8889 24.5036 12.8296 24.3555 12.7111 24.2518ZM3.94075 23.3185C3.57038 23.3185 3.22963 23.4666 2.97778 23.7185C2.74075 23.9555 2.57778 24.2962 2.57778 24.6814C2.57778 25.0518 2.72593 25.3925 2.97778 25.6444C3.22963 25.8962 3.55556 26.0444 3.94075 26.0444C4.31112 26.0444 4.65186 25.8962 4.90371 25.6444C5.15556 25.3925 5.30371 25.0666 5.30371 24.6814C5.30371 24.3111 5.15556 23.9703 4.90371 23.7185C4.65186 23.4666 4.32593 23.3185 3.94075 23.3185ZM3.94075 24.2518C3.82223 24.2518 3.71852 24.2962 3.64445 24.3703C3.57038 24.4444 3.52593 24.5481 3.52593 24.6666C3.52593 24.7851 3.57038 24.8888 3.64445 24.9629C3.71852 25.037 3.82223 25.0814 3.94075 25.0814C4.05926 25.0814 4.16297 25.037 4.23704 24.9629C4.31112 24.8888 4.35556 24.7851 4.35556 24.6666C4.35556 24.5481 4.31112 24.4444 4.23704 24.3703C4.17778 24.2962 4.05926 24.2518 3.94075 24.2518ZM4.07408 24.5481C4.04445 24.5185 4.00001 24.4888 3.94075 24.4888C3.8963 24.4888 3.83704 24.5036 3.80741 24.5481C3.77778 24.5777 3.74815 24.6222 3.74815 24.6814C3.74815 24.7259 3.76297 24.7851 3.80741 24.8148C3.83704 24.8444 3.88149 24.874 3.94075 24.874C3.98519 24.874 4.04445 24.8592 4.07408 24.8148C4.10371 24.7851 4.13334 24.7407 4.13334 24.6814C4.13334 24.6222 4.11852 24.5777 4.07408 24.5481ZM4.37038 24.2518C4.26667 24.1481 4.11852 24.074 3.95556 24.074C3.7926 24.074 3.64445 24.1333 3.54075 24.2518C3.43704 24.3555 3.36297 24.5036 3.36297 24.6666C3.36297 24.8296 3.42223 24.9777 3.54075 25.0814C3.64445 25.1851 3.7926 25.2592 3.95556 25.2592C4.11852 25.2592 4.26667 25.1999 4.37038 25.0814C4.47408 24.9777 4.54815 24.8296 4.54815 24.6666C4.53334 24.5036 4.47408 24.3555 4.37038 24.2518Z" fill="#ED8611"/>
</g>
<path id="Vector_2" d="M19.1193 10.1057C18.9121 11.233 18.9121 11.9093 19.1193 12.1347C19.43 12.4729 19.9005 12.3884 20.6215 12.1347C21.1021 11.9657 23.2283 11.2541 27 10C22.8933 12.2968 20.5823 13.5509 20.067 13.7622C19.294 14.0793 18.7478 14.0793 18.3378 13.7622C17.9278 13.4452 17.9009 12.4941 18.2034 11.7754C18.405 11.2964 18.7103 10.7398 19.1193 10.1057Z" fill="#EA5E13"/>
</g>
</g>
</svg>
