<svg width="40" height="40" viewBox="0 0 40 40" fill="none" xmlns="http://www.w3.org/2000/svg">
<g id="&#231;&#155;&#146;&#229;&#173;&#144; 3" clip-path="url(#clip0_258_479)">
<path id="Vector" d="M5.63087 2.8623H8.01837C8.09711 2.8623 8.17262 2.89358 8.2283 2.94926C8.28397 3.00493 8.31525 3.08044 8.31525 3.15918C8.31525 3.23792 8.28397 3.31343 8.2283 3.3691C8.17262 3.42478 8.09711 3.45605 8.01837 3.45605H5.63025C5.55151 3.45605 5.476 3.42478 5.42033 3.3691C5.36465 3.31343 5.33337 3.23792 5.33337 3.15918C5.33337 3.08044 5.36465 3.00493 5.42033 2.94926C5.476 2.89358 5.55151 2.8623 5.63025 2.8623H5.63087Z" fill="#FFB400"/>
<path id="Vector_2" d="M6.82654 1.66669C6.99091 1.66669 7.12341 1.79981 7.12341 1.96356V4.35106C7.12341 4.4298 7.09214 4.50531 7.03646 4.56098C6.98079 4.61666 6.90527 4.64794 6.82654 4.64794C6.7478 4.64794 6.67229 4.61666 6.61662 4.56098C6.56094 4.50531 6.52966 4.4298 6.52966 4.35106V1.96356C6.52966 1.79981 6.66279 1.66669 6.82654 1.66669Z" fill="#FFB400"/>
<path id="Vector_3" d="M16.0442 3.89984L17.1967 4.20859C17.2733 4.22931 17.3386 4.27963 17.3782 4.34849C17.4178 4.41736 17.4283 4.49911 17.4076 4.57577C17.3869 4.65244 17.3366 4.71773 17.2677 4.75729C17.1989 4.79685 17.1171 4.80743 17.0404 4.78671L15.8879 4.47796C15.8113 4.45724 15.746 4.40692 15.7064 4.33806C15.6669 4.26919 15.6563 4.18744 15.677 4.11077C15.6977 4.03411 15.748 3.96882 15.8169 3.92926C15.8858 3.8897 15.9675 3.87912 16.0442 3.89984Z" fill="#FFB400"/>
<path id="Vector_4" d="M18.1698 2.22411L18.4779 3.37661C18.4882 3.41457 18.4908 3.45418 18.4858 3.49317C18.4807 3.53217 18.4681 3.56979 18.4485 3.60389C18.4289 3.63799 18.4028 3.66789 18.3716 3.69189C18.3405 3.7159 18.3049 3.73354 18.267 3.7438C18.229 3.75406 18.1894 3.75674 18.1504 3.75169C18.1114 3.74664 18.0738 3.73396 18.0397 3.71437C18.0056 3.69479 17.9757 3.66868 17.9517 3.63753C17.9277 3.60639 17.91 3.57082 17.8998 3.53286L17.591 2.37661C17.5806 2.33861 17.5779 2.29892 17.5829 2.25984C17.5879 2.22076 17.6006 2.18306 17.6202 2.1489C17.6398 2.11474 17.666 2.08481 17.6973 2.06082C17.7285 2.03682 17.7642 2.01925 17.8023 2.00911C17.8795 1.98979 17.9612 2.00147 18.0299 2.04166C18.0986 2.08185 18.1488 2.14734 18.1698 2.22411Z" fill="#FF6E1F"/>
<path id="Vector_5" d="M20.6817 3.22426L19.838 4.06801C19.8104 4.09597 19.7775 4.11818 19.7412 4.13333C19.705 4.14849 19.666 4.15629 19.6267 4.15629C19.5874 4.15629 19.5485 4.14849 19.5123 4.13333C19.476 4.11818 19.4431 4.09597 19.4155 4.06801C19.3876 4.0404 19.3655 4.00755 19.3504 3.97134C19.3353 3.93514 19.3275 3.8963 19.3275 3.85707C19.3275 3.81784 19.3353 3.779 19.3504 3.74279C19.3655 3.70659 19.3876 3.67373 19.4155 3.64613L20.2592 2.80238C20.2869 2.77449 20.3198 2.75235 20.3561 2.73724C20.3923 2.72213 20.4312 2.71436 20.4705 2.71436C20.5098 2.71436 20.5487 2.72213 20.5849 2.73724C20.6212 2.75235 20.6541 2.77449 20.6817 2.80238C20.7095 2.83003 20.7316 2.86289 20.7466 2.89909C20.7617 2.9353 20.7694 2.97411 20.7694 3.01332C20.7694 3.05252 20.7617 3.09134 20.7466 3.12754C20.7316 3.16374 20.7095 3.19661 20.6817 3.22426Z" fill="#FFB400"/>
<path id="Vector_6" d="M35.8244 14.9137L17.9119 12.5262V21.9925L35.8244 23.8719V14.9137Z" fill="#F85C07"/>
<path id="Vector_7" d="M3.58252 15.625L17.9119 12.5269V23.2737L3.58252 26.3719V15.625Z" fill="#F87F3E"/>
<path id="Vector_8" d="M20.2987 19.2069L35.8237 14.9131V35.2131L20.2987 39.5063V19.2069Z" fill="#F76312"/>
<path id="Vector_9" d="M3.58252 15.625L20.2988 19.2075V39.3969L3.58252 35.33V15.625Z" fill="#FF7B32"/>
<path id="Vector_10" d="M20.2988 19.1762L3.5825 15.625L0 22.7906L17.3144 26.8575L20.2988 19.1762Z" fill="#FF965D"/>
<path id="Vector_11" d="M20.2987 19.2069L35.8237 14.9131L40.0043 22.0781L25.0768 26.9694L20.2987 19.2069Z" fill="#FF6E1F"/>
<path id="Vector_12" d="M28.6981 15.445C28.6981 15.445 29.3625 11.2575 32.8319 9.17126C32.8319 9.17126 33.1362 9.51502 33.7381 10.2881C33.7381 10.2881 32.1594 10.0381 28.6981 15.4444V15.445Z" fill="#FF965D"/>
<path id="Vector_13" d="M20.2987 15.2731C20.2987 15.2731 20.3656 12.98 22.0456 7.80377C22.0456 7.80377 22.35 8.14752 22.9518 8.92065C22.9518 8.92065 22.3187 9.4719 20.2987 15.2731Z" fill="#FF6E1F"/>
<path id="Vector_14" d="M11.1413 15.0625C11.1413 15.0625 9.25063 9.5075 4.62125 7C4.62125 7 3.8475 8.08125 3 8.425C2.99563 8.425 8.325 10.2813 11.1413 15.0625Z" fill="#FFD200"/>
<g id="&#232;&#161;&#163;&#230;&#156;&#141; (1) 1" clip-path="url(#clip1_258_479)">
<path id="Vector_15" d="M30.756 4.4531L30.1316 5.98031L29.368 5.66812L30.7331 8.89099L26.4084 10.7057L25.0649 7.47379L24.7527 8.2374L23.2255 7.61302L24.162 5.3222L24.6999 5.09649C25.1792 5.63555 26.0496 5.79535 26.7543 5.49968C27.4535 5.20625 27.9709 4.46412 27.9273 3.74224L28.4652 3.51653L30.756 4.4531Z" fill="#FFB400"/>
</g>
<path id="Vector_16" d="M17.5824 6.66196C18.1239 6.29574 18.6618 5.92423 19.2083 5.56567C19.4579 5.40188 19.7428 5.34796 20.0418 5.37685C20.5457 5.42554 20.6089 5.92372 20.3968 6.18632C20.2786 6.33274 20.1407 6.46339 20.011 6.60046C19.7726 6.8525 19.584 7.14065 19.4348 7.45065C19.216 7.90533 19.015 8.36859 18.8064 8.8282C18.7777 8.89141 18.7457 8.95331 18.7206 9.0179C18.6843 9.1113 18.6174 9.12857 18.5304 9.10261C18.4578 9.08093 18.3859 9.0572 18.3134 9.03516C17.899 8.90906 17.621 9.03725 17.4493 9.4339C17.4256 9.48893 17.4046 9.54521 17.3808 9.60027C17.3022 9.78222 17.2049 9.81812 17.0422 9.70245C16.9147 9.61182 16.7955 9.50605 16.6864 9.39359C16.4089 9.10738 16.2208 8.75902 16.0256 8.41586C15.9923 8.35744 15.9373 8.31144 15.8925 8.25947C15.7275 8.06769 15.7483 7.90185 15.9575 7.76C16.4986 7.39321 17.0403 7.02734 17.5818 6.66111C17.582 6.66137 17.5822 6.66165 17.5824 6.66196ZM18.8497 7.98205C18.8333 7.96561 18.8299 7.95927 18.8247 7.95733C18.4061 7.79876 17.9874 7.64022 17.5681 7.48328C17.5471 7.4754 17.5149 7.47309 17.4975 7.48382C17.4155 7.53431 17.3368 7.59023 17.2571 7.64416C17.2676 7.65965 17.2699 7.66747 17.2745 7.66922C17.6959 7.82923 18.1174 7.98918 18.5396 8.14719C18.56 8.15481 18.5918 8.15347 18.6097 8.14242C18.6897 8.09289 18.7665 8.03832 18.8497 7.98205ZM19.0839 7.42745C19.0526 7.41106 19.0422 7.40353 19.0307 7.39987C18.7272 7.30359 18.4237 7.20743 18.1198 7.11231C18.0998 7.10604 18.0714 7.0986 18.0568 7.10769C17.971 7.16133 17.8881 7.21969 17.7844 7.28981C18.1321 7.39904 18.453 7.50035 18.7746 7.59983C18.7932 7.60556 18.8207 7.60319 18.8367 7.59307C18.9157 7.54321 18.9922 7.48947 19.0839 7.42745ZM18.3445 6.90846C18.3609 6.92254 18.3666 6.93079 18.3742 6.93349C18.6091 7.01662 18.8441 7.09968 19.0797 7.18114C19.0987 7.18775 19.127 7.19137 19.142 7.18196C19.2255 7.12967 19.3062 7.0729 19.4079 7.0041C19.1361 6.90903 18.8899 6.82245 18.6431 6.73765C18.6276 6.73233 18.6036 6.73504 18.5898 6.74387C18.5085 6.79613 18.429 6.85128 18.3445 6.90846Z" fill="#FF965D"/>
<path id="Vector_17" d="M14.8515 16.1627C14.0758 15.5629 13.2943 14.9706 12.5272 14.3601C12.1768 14.0812 11.9664 13.7006 11.8674 13.261C11.7005 12.5202 12.3807 12.1966 12.8543 12.3756C13.1184 12.4754 13.3692 12.6106 13.6253 12.7312C14.0962 12.9528 14.5951 13.0863 15.1068 13.1536C15.8573 13.2522 16.6115 13.3213 17.3642 13.4031C17.4677 13.4144 17.5709 13.431 17.6747 13.4365C17.8248 13.4443 17.8808 13.5316 17.8846 13.6677C17.8877 13.7813 17.8877 13.895 17.8902 14.0086C17.9049 14.6582 18.2178 14.9941 18.8635 15.0528C18.953 15.0609 19.043 15.0644 19.1326 15.0724C19.4287 15.0991 19.5255 15.221 19.437 15.5071C19.3676 15.7312 19.2728 15.9506 19.1637 16.1587C18.886 16.6884 18.4778 17.1197 18.0804 17.5587C18.0127 17.6335 17.973 17.7335 17.9199 17.8216C17.7241 18.1467 17.478 18.1948 17.1778 17.9632C16.4015 17.3642 15.6262 16.7638 14.8506 16.164C14.8508 16.1636 14.8511 16.1632 14.8515 16.1627ZM16.1383 13.7381C16.1225 13.7692 16.1151 13.7771 16.1148 13.7853C16.0851 14.4562 16.0555 15.1271 16.0284 15.7981C16.0271 15.8318 16.0389 15.8787 16.0623 15.8985C16.1727 15.9916 16.2893 16.0774 16.4035 16.1658C16.4206 16.1436 16.4307 16.1367 16.431 16.1293C16.4614 15.4537 16.4918 14.7782 16.519 14.1026C16.5203 14.07 16.5034 14.0253 16.4793 14.005C16.3712 13.9142 16.2574 13.8303 16.1383 13.7381ZM15.2383 13.6645C15.2296 13.7167 15.2237 13.735 15.2239 13.7532C15.229 14.2307 15.2343 14.7083 15.2412 15.1859C15.2417 15.2173 15.2444 15.2613 15.2642 15.2778C15.3808 15.375 15.5029 15.4658 15.6514 15.5806C15.644 15.034 15.6379 14.5292 15.6289 14.0244C15.6283 13.9952 15.6121 13.9571 15.5901 13.939C15.4821 13.8499 15.3696 13.7661 15.2383 13.6645ZM14.8454 14.9613C14.8578 14.9314 14.8669 14.9194 14.8672 14.9073C14.8755 14.5335 14.8836 14.1598 14.8893 13.786C14.8898 13.7557 14.8817 13.7137 14.8612 13.6968C14.7476 13.6023 14.6289 13.5139 14.4832 13.4013C14.4751 13.8332 14.4672 14.2245 14.4621 14.6159C14.4617 14.6405 14.4769 14.6735 14.4959 14.6889C14.6085 14.7803 14.7243 14.8677 14.8454 14.9613Z" fill="#FFD200"/>
</g>
<defs>
<clipPath id="clip0_258_479">
<rect width="40" height="40" fill="white"/>
</clipPath>
<clipPath id="clip1_258_479">
<rect width="9.33333" height="9.33333" fill="white" transform="translate(21.3334 4.61133) rotate(-22.7636)"/>
</clipPath>
</defs>
</svg>
