<svg width="32" height="32" viewBox="0 0 32 32" fill="none" xmlns="http://www.w3.org/2000/svg">
<path id="Vector" d="M17.8419 8.61539H30.8015C31.0339 8.61539 31.2424 8.4871 31.3506 8.28264C31.4548 8.07818 31.4388 7.82962 31.3025 7.6452L26.5805 1.03032C26.1195 0.384866 25.3739 0 24.5762 0H17.8419C17.5012 0 17.2286 0.276622 17.2286 0.61338V7.99799C17.2286 8.16236 17.2927 8.31872 17.409 8.43498C17.5212 8.55124 17.6816 8.61539 17.8419 8.61539ZM1.19454 8.61539H14.1501C14.4908 8.61539 14.7674 8.33876 14.7674 7.99799V0.617389C14.7674 0.276622 14.4908 0.00400896 14.1501 0.00400896H7.41576C6.62207 0.00400896 5.87649 0.388875 5.4115 1.03433L0.693474 7.6452C0.561193 7.83363 0.54115 8.07818 0.645371 8.28264C0.749593 8.4871 0.962044 8.61539 1.19454 8.61539ZM31.3827 11.0769H0.613303C0.272579 11.0769 0 11.3535 0 11.6903V29.5385C0 30.8975 1.10234 32 2.46123 32H29.5388C30.8977 32 32 30.8975 32 29.5385V11.6943C31.996 11.3535 31.7194 11.0769 31.3827 11.0769ZM4.91845 20.9271H8.6103C9.05123 20.9271 9.45609 21.1636 9.67656 21.5445C9.89703 21.9253 9.89703 22.3944 9.67656 22.7752C9.45609 23.1561 9.05123 23.3926 8.6103 23.3926H4.91845C4.47751 23.3926 4.07265 23.1561 3.85219 22.7752C3.63172 22.3944 3.63172 21.9253 3.85219 21.5445C4.07265 21.1636 4.48152 20.9271 4.91845 20.9271ZM12.3062 28.3117H4.91845C4.47751 28.3117 4.07265 28.0752 3.85219 27.6943C3.63172 27.3135 3.63172 26.8444 3.85219 26.4635C4.07265 26.0827 4.47751 25.8502 4.91845 25.8502H12.3062C12.7471 25.8502 13.1519 26.0827 13.3724 26.4635C13.5929 26.8444 13.5929 27.3135 13.3724 27.6943C13.1519 28.0752 12.7431 28.3117 12.3062 28.3117Z" fill="#EA5E13"/>
</svg>
