<svg width="36" height="36" viewBox="0 0 36 36" fill="none" xmlns="http://www.w3.org/2000/svg">
<g id="&#232;&#180;&#167;&#230;&#158;&#182; 1">
<path id="Vector" d="M32.4 1.79998C32.1135 1.79998 31.8388 1.91377 31.6363 2.11631C31.4337 2.31884 31.32 2.59355 31.32 2.87998V6.83998H27.36C27.3157 6.34633 27.0877 5.88732 26.7209 5.55393C26.3542 5.22054 25.8756 5.0371 25.38 5.03998H20.7C20.2062 5.03981 19.7303 5.22446 19.3658 5.55759C19.0014 5.89072 18.7748 6.3482 18.7308 6.83998H17.2692C17.2251 6.3482 16.9985 5.89072 16.6341 5.55759C16.2697 5.22446 15.7937 5.03981 15.3 5.03998H10.62C10.1262 5.03981 9.65027 5.22446 9.28583 5.55759C8.92138 5.89072 8.69483 6.3482 8.65076 6.83998H4.69076V2.87998C4.69076 2.59355 4.57698 2.31884 4.37444 2.11631C4.1719 1.91377 3.8972 1.79998 3.61076 1.79998C3.32433 1.79998 3.04963 1.91377 2.84709 2.11631C2.64455 2.31884 2.53076 2.59355 2.53076 2.87998V33.48C2.53076 33.7664 2.64455 34.0411 2.84709 34.2437C3.04963 34.4462 3.32433 34.56 3.61076 34.56C3.8972 34.56 4.1719 34.4462 4.37444 34.2437C4.57698 34.0411 4.69076 33.7664 4.69076 33.48V27.36H31.3308V33.48C31.3308 33.7664 31.4445 34.0411 31.6471 34.2437C31.8496 34.4462 32.1243 34.56 32.4108 34.56C32.6972 34.56 32.9719 34.4462 33.1744 34.2437C33.377 34.0411 33.4908 33.7664 33.4908 33.48V2.87998C33.4908 2.73724 33.4625 2.59591 33.4075 2.46417C33.3526 2.33243 33.2721 2.21289 33.1706 2.11246C33.0692 2.01203 32.9489 1.93271 32.8166 1.87907C32.6843 1.82543 32.5427 1.79855 32.4 1.79998ZM31.32 25.2H27.36C27.3157 24.7063 27.0877 24.2473 26.7209 23.9139C26.3542 23.5805 25.8756 23.3971 25.38 23.4H20.7C20.2062 23.3998 19.7303 23.5845 19.3658 23.9176C19.0014 24.2507 18.7748 24.7082 18.7308 25.2H17.2692C17.2251 24.7082 16.9985 24.2507 16.6341 23.9176C16.2697 23.5845 15.7937 23.3998 15.3 23.4H10.62C10.1262 23.3998 9.65027 23.5845 9.28583 23.9176C8.92138 24.2507 8.69483 24.7082 8.65076 25.2H4.69076V8.99998H31.3308L31.32 25.2Z" fill="#FF5A00"/>
</g>
</svg>
