<svg width="24" height="24" viewBox="0 0 24 24" fill="none" xmlns="http://www.w3.org/2000/svg">
<g id="Frame 2136637654">
<path id="Vector" d="M13.1512 7.11539H21.2509C21.3962 7.11539 21.5265 7.03921 21.5941 6.91781C21.6593 6.79642 21.6493 6.64883 21.5641 6.53934L18.6128 2.61175C18.3247 2.22851 17.8587 2 17.3601 2H13.1512C12.9382 2 12.7679 2.16424 12.7679 2.36419V6.74881C12.7679 6.8464 12.808 6.93924 12.8806 7.00827C12.9508 7.0773 13.051 7.11539 13.1512 7.11539ZM2.74659 7.11539H10.8438C11.0567 7.11539 11.2296 6.95114 11.2296 6.74881V2.36657C11.2296 2.16424 11.0567 2.00238 10.8438 2.00238H6.63485C6.13879 2.00238 5.6728 2.23089 5.38219 2.61413L2.43342 6.53934C2.35075 6.65122 2.33822 6.79642 2.40336 6.91781C2.4685 7.03921 2.60128 7.11539 2.74659 7.11539ZM21.6142 8.57692H2.38331C2.17036 8.57692 2 8.74117 2 8.94112V19.5385C2 20.3454 2.68896 21 3.53827 21H20.4617C21.311 21 22 20.3454 22 19.5385V8.9435C21.9975 8.74117 21.8246 8.57692 21.6142 8.57692ZM5.07403 14.4255H7.38144C7.65702 14.4255 7.91006 14.5659 8.04785 14.792C8.18564 15.0182 8.18564 15.2967 8.04785 15.5228C7.91006 15.7489 7.65702 15.8894 7.38144 15.8894H5.07403C4.79845 15.8894 4.54541 15.7489 4.40762 15.5228C4.26982 15.2967 4.26982 15.0182 4.40762 14.792C4.54541 14.5659 4.80095 14.4255 5.07403 14.4255ZM9.69134 18.8101H5.07403C4.79845 18.8101 4.54541 18.6696 4.40762 18.4435C4.26982 18.2174 4.26982 17.9389 4.40762 17.7127C4.54541 17.4866 4.79845 17.3485 5.07403 17.3485H9.69134C9.96693 17.3485 10.22 17.4866 10.3578 17.7127C10.4956 17.9389 10.4956 18.2174 10.3578 18.4435C10.22 18.6696 9.96442 18.8101 9.69134 18.8101Z" fill="#EA5E13"/>
</g>
</svg>
