<svg width="40" height="40" viewBox="0 0 40 40" fill="none" xmlns="http://www.w3.org/2000/svg">
<g id="&#232;&#174;&#162;&#229;&#141;&#149;&#229;&#135;&#134;&#230;&#151;&#182;&#231;&#142;&#135; 1">
<path id="Vector" d="M27.125 2.5C28.25 2.5 29.125 3.375 29.125 4.375C29.125 5.375 28.25 6.25 27.125 6.25H21.875V8C29.25 9 35 15.25 35 22.75C35 30.875 28.25 37.5 20 37.5C11.75 37.5 5 30.875 5 22.75C5 15.25 10.75 9 18 8.125V6.375H12.75C11.625 6.375 10.75 5.5 10.75 4.5C10.75 3.5 11.75 2.5 12.875 2.5H27.125Z" fill="#EA5E13"/>
<path id="Vector_2" d="M22.5 18.125C23.25 17.375 24.625 17.375 25.375 18.125C26.125 18.875 26.125 20.25 25.375 21L20.75 25.5C20.375 25.875 19.75 26.125 19.125 26.125L14.75 25.75C13.625 25.625 12.75 24.625 12.875 23.5C13 22.375 14 21.625 15.125 21.75L18.625 22.125L22.5 18.125Z" fill="#FFFDFD"/>
</g>
</svg>
