<svg width="36" height="36" viewBox="0 0 36 36" fill="none" xmlns="http://www.w3.org/2000/svg">
<g id="&#231;&#137;&#169;&#229;&#147;&#129;-&#233;&#158;&#139;&#229;&#173;&#144;-t 1">
<path id="Vector" d="M5.12578 24.6868H30.8707C32.4387 24.6868 33.7113 23.4106 33.7113 21.8462C33.7113 20.3661 33.4512 19.1848 32.8957 18.1337C32.1996 16.8188 31.0676 15.7571 29.4258 14.8922L29.4152 14.8852L27.0281 13.6899L25.8047 15.5919L24.5672 17.5079C24.3527 17.8419 23.9906 18.0212 23.6215 18.0212C23.4141 18.0212 23.1996 17.9614 23.0133 17.8419C22.493 17.5044 22.3418 16.8083 22.6793 16.288L23.7832 14.5794L25.0102 12.6774L23.0098 11.6755L21.7828 13.5774L20.4223 15.6833C20.2078 16.0172 19.8457 16.1965 19.4766 16.1965C19.2691 16.1965 19.0547 16.1368 18.8684 16.0172C18.348 15.6797 18.1969 14.9837 18.5344 14.4633L19.7613 12.5649L20.9883 10.6629L15.9469 8.14225C15.4336 7.88561 14.8359 7.86451 14.3051 8.08951C13.173 8.56764 9.15117 10.0055 4.94648 8.41647C4.34531 8.18795 3.6668 8.27232 3.13945 8.63795C2.60156 9.00709 2.28516 9.60826 2.28516 10.2551V21.8462C2.28516 23.4141 3.56133 24.6868 5.12578 24.6868ZM32.5898 25.8118H3.41016C2.78789 25.8118 2.28516 26.3145 2.28516 26.9368C2.28516 27.559 2.78789 28.0618 3.41016 28.0618H32.5898C33.2121 28.0618 33.7148 27.559 33.7148 26.9368C33.7148 26.3145 33.2121 25.8118 32.5898 25.8118Z" fill="#EA5E13"/>
</g>
</svg>
