<svg width="36" height="36" viewBox="0 0 36 36" fill="none" xmlns="http://www.w3.org/2000/svg">
<g id="&#230;&#137;&#171;&#230;&#143;&#143;&#230;&#157;&#161;&#231;&#160;&#129; 1">
<path id="Vector" d="M29.2377 19.3725V29.1983H28.5357V19.3725H26.4302V29.1983H25.7288V19.3725H24.3248V29.1983H23.6234V19.3725H22.9214V29.1983H20.8159V19.3725H20.1145V29.1983H19.4119V19.3725H16.6045V29.1983H15.9025V19.3725H15.2005V29.1983H13.7965V19.3725H12.3931V29.1983H10.9891V19.3725H9.58562V29.1983H8.88362V19.3725H8.18162V29.1983H6.77818V19.3725H1.16443V17.2671H6.77874V6.7399H8.18218V17.2671H8.88418V6.7399H9.58618V17.2671H10.9896V6.7399H12.3936V17.2671H13.7971V6.7399H15.2011V17.2671H15.9031V6.7399H16.6051V17.2671H19.4125V6.7399H20.1145V17.2671H20.8159V6.7399H22.9214V17.2671H23.6234V6.7399H24.3248V17.2671H25.7288V6.7399H26.4302V17.2671H28.5357V6.7399H29.2377V17.2671H34.852V19.3725H29.2377ZM32.0446 5.27009C32.0446 4.91548 31.9037 4.57539 31.6529 4.32464C31.4022 4.0739 31.0621 3.93303 30.7075 3.93303H23.6228V1.82759H31.3426C31.7113 1.82752 32.0764 1.90008 32.417 2.04114C32.7576 2.1822 33.0672 2.38899 33.3279 2.6497C33.5886 2.91041 33.7954 3.21993 33.9364 3.56058C34.0775 3.90123 34.1501 4.26633 34.15 4.63503V13.0568H32.0446V5.27009ZM3.97187 5.27009V13.0568H1.86643V4.63446C1.86658 3.88993 2.16241 3.17593 2.68887 2.64947C3.21534 2.12301 3.92933 1.82718 4.67387 1.82703H12.3942V3.93246H5.30893C4.95427 3.93261 4.61418 4.07361 4.36345 4.32444C4.11272 4.57528 3.97187 4.91543 3.97187 5.27009ZM3.97187 30.6681C3.97187 31.0227 4.11273 31.3628 4.36348 31.6135C4.61423 31.8643 4.95432 32.0052 5.30893 32.0052H12.3936V34.1263L4.67387 34.1111C4.30517 34.1112 3.94007 34.0387 3.59942 33.8976C3.25877 33.7565 2.94925 33.5497 2.68854 33.289C2.42783 33.0283 2.22104 32.7188 2.07998 32.3782C1.93892 32.0375 1.86635 31.6724 1.86643 31.3037V22.882H3.97187V30.6681ZM32.0446 30.6681V22.882H34.15V31.3032C34.15 32.854 32.9721 34.164 31.4219 34.164L23.6228 34.1488V32.0052H30.7075C31.0621 32.0052 31.4022 31.8643 31.6529 31.6135C31.9037 31.3628 32.0446 31.0227 32.0446 30.6681Z" fill="#FF5A00"/>
</g>
</svg>
