<svg width="48" height="48" viewBox="0 0 48 48" fill="none" xmlns="http://www.w3.org/2000/svg">
<g id="Frame 2136637699" clip-path="url(#clip0_251_80)">
<g id="Group 913">
<g id="Group 910">
<rect id="Rectangle 1375" x="5.83337" y="7.16663" width="41.6667" height="27.4444" stroke="#EA5E13"/>
<rect id="Rectangle 1376" x="5.33337" y="6.66663" width="42.6667" height="3.55556" fill="#EA5E13"/>
<rect id="Rectangle 1377" x="16" y="22.6666" width="6.66667" height="12.4444" fill="#EA5E13"/>
<rect id="Rectangle 1378" x="30.0741" y="22.6666" width="6.66667" height="12.4444" fill="#EA5E13"/>
</g>
<g id="&#231;&#154;&#174;&#229;&#141;&#161; 1">
<path id="Vector" d="M18.7852 26.6814H19.9506L19.6148 28.321H18.8049V28.2419C18.8049 27.5703 18.5284 26.9777 18.0938 26.5432C17.6593 26.1086 17.0667 25.8321 16.3951 25.8321C15.7235 25.8321 15.1309 26.1086 14.6963 26.5432C14.2617 26.9777 13.9852 27.5703 13.9852 28.2419V28.321H12.0099V21.6839H11.8124V28.3012H7.6247V28.2222C7.6247 27.5703 7.36791 26.9777 6.93334 26.5432C6.51852 26.1284 5.92593 25.8518 5.25433 25.8518C4.60248 25.8518 4.00988 26.1086 3.57532 26.5432C3.14075 26.9777 2.88396 27.5703 2.88396 28.2222V28.3012H2.72593L2.23211 27.2543V26.1679H1.93581V25.4172H1.30371V23.4814H10.7852C10.8049 22.6913 10.8445 21.9407 10.9432 21.2098H15.2099C16.158 22.0395 16.7704 22.9876 17.1457 23.995C17.7975 24.2123 18.4494 24.4493 19.1012 24.6666C19.3185 25.0222 19.4765 25.3975 19.5753 25.753H18.4494L18.7852 26.6814ZM12.6815 25.0617V25.358H13.4321V25.0617H12.6815ZM12.5827 21.8222V24.6074H14.5185L15.1704 24.0938H16.3161C16.0593 23.2642 15.5852 22.5135 14.9728 21.8222H12.5827ZM4.00988 23.7777V25.0419H4.24692V23.7777H4.00988ZM2.05433 23.7777V25.0419H2.29137V23.7777H2.05433ZM5.96544 23.7777V25.0419H6.20248V23.7777H5.96544ZM7.94075 23.7777V25.0419H8.17778V23.7777H7.94075ZM9.8963 23.7777V25.0419H10.1333V23.7777H9.8963ZM16.3951 26.4247C15.9012 26.4247 15.4469 26.6222 15.1111 26.958C14.7951 27.274 14.5778 27.7284 14.5778 28.2419C14.5778 28.7358 14.7753 29.1901 15.1111 29.5259C15.4469 29.8617 15.8815 30.0592 16.3951 30.0592C16.8889 30.0592 17.3432 29.8617 17.679 29.5259C18.0148 29.1901 18.2124 28.7555 18.2124 28.2419C18.2124 27.7481 18.0148 27.2938 17.679 26.958C17.3432 26.6222 16.8889 26.4247 16.3951 26.4247ZM16.4148 27.6691C16.2568 27.6691 16.1185 27.7284 16.0198 27.8271C15.921 27.9259 15.8617 28.0642 15.8617 28.2222C15.8617 28.3802 15.921 28.5185 16.0198 28.6172C16.1185 28.716 16.2568 28.7753 16.4148 28.7753C16.5728 28.7753 16.7111 28.716 16.8099 28.6172C16.9086 28.5185 16.9679 28.3802 16.9679 28.2222C16.9679 28.0642 16.9086 27.9259 16.8099 27.8271C16.7111 27.7284 16.5728 27.6691 16.4148 27.6691ZM16.5926 28.0642C16.5531 28.0247 16.4938 27.9851 16.4148 27.9851C16.3556 27.9851 16.2766 28.0049 16.237 28.0642C16.1975 28.1037 16.158 28.1629 16.158 28.2419C16.158 28.3012 16.1778 28.3802 16.237 28.4197C16.2766 28.4592 16.3358 28.4987 16.4148 28.4987C16.4741 28.4987 16.5531 28.479 16.5926 28.4197C16.6321 28.3802 16.6716 28.321 16.6716 28.2419C16.6519 28.1629 16.6321 28.1037 16.5926 28.0642ZM16.9482 27.6691C16.8099 27.5308 16.6124 27.4321 16.3951 27.4321C16.1778 27.4321 15.9803 27.5111 15.842 27.6691C15.7037 27.8074 15.6049 28.0049 15.6049 28.2222C15.6049 28.4395 15.684 28.637 15.842 28.7753C15.9803 28.9135 16.1778 29.0123 16.3951 29.0123C16.6124 29.0123 16.8099 28.9333 16.9482 28.7753C17.0864 28.637 17.1852 28.4395 17.1852 28.2222C17.1852 28.0049 17.1062 27.8074 16.9482 27.6691ZM5.25433 26.4247C4.7605 26.4247 4.30618 26.6222 3.97038 26.958C3.65433 27.274 3.43704 27.7284 3.43704 28.2419C3.43704 28.7358 3.63457 29.1901 3.97038 29.5259C4.30618 29.8617 4.74075 30.0592 5.25433 30.0592C5.74816 30.0592 6.20248 29.8617 6.53828 29.5259C6.87408 29.1901 7.07161 28.7555 7.07161 28.2419C7.07161 27.7481 6.87408 27.2938 6.53828 26.958C6.20248 26.6222 5.76791 26.4247 5.25433 26.4247ZM5.25433 27.6691C5.0963 27.6691 4.95803 27.7284 4.85927 27.8271C4.7605 27.9259 4.70124 28.0642 4.70124 28.2222C4.70124 28.3802 4.7605 28.5185 4.85927 28.6172C4.95803 28.716 5.0963 28.7753 5.25433 28.7753C5.41235 28.7753 5.55062 28.716 5.64939 28.6172C5.74816 28.5185 5.80741 28.3802 5.80741 28.2222C5.80741 28.0642 5.74816 27.9259 5.64939 27.8271C5.57038 27.7284 5.41235 27.6691 5.25433 27.6691ZM5.43211 28.0642C5.3926 28.0247 5.33334 27.9851 5.25433 27.9851C5.19507 27.9851 5.11606 28.0049 5.07655 28.0642C5.03704 28.1037 4.99754 28.1629 4.99754 28.2419C4.99754 28.3012 5.01729 28.3802 5.07655 28.4197C5.11606 28.4592 5.17532 28.4987 5.25433 28.4987C5.31359 28.4987 5.3926 28.479 5.43211 28.4197C5.47161 28.3802 5.51112 28.321 5.51112 28.2419C5.51112 28.1629 5.49137 28.1037 5.43211 28.0642ZM5.82717 27.6691C5.6889 27.5308 5.49137 27.4321 5.27408 27.4321C5.0568 27.4321 4.85927 27.5111 4.72099 27.6691C4.58272 27.8074 4.48396 28.0049 4.48396 28.2222C4.48396 28.4395 4.56297 28.637 4.72099 28.7753C4.85927 28.9135 5.0568 29.0123 5.27408 29.0123C5.49137 29.0123 5.6889 28.9333 5.82717 28.7753C5.96544 28.637 6.0642 28.4395 6.0642 28.2222C6.04445 28.0049 5.96544 27.8074 5.82717 27.6691Z" fill="#FF941A"/>
</g>
<path id="Vector_2" d="M25.4924 13.4743C25.2162 14.9773 25.2162 15.8791 25.4924 16.1797C25.9067 16.6306 26.534 16.5179 27.4953 16.1797C28.1361 15.9542 30.971 15.0055 36 13.3334C30.5244 16.3957 27.443 18.0679 26.756 18.3497C25.7254 18.7724 24.997 18.7724 24.4504 18.3497C23.9038 17.9269 23.8679 16.6588 24.2712 15.7006C24.54 15.0619 24.9471 14.3197 25.4924 13.4743Z" fill="#EA5E13"/>
</g>
</g>
<defs>
<clipPath id="clip0_251_80">
<rect width="48" height="48" fill="white"/>
</clipPath>
</defs>
</svg>
