<svg width="32" height="28" viewBox="0 0 32 28" fill="none" xmlns="http://www.w3.org/2000/svg">
<path id="Vector" d="M27.8809 28H4.11485C0.441839 28 -1.05525 25.4556 0.791541 22.3431L12.67 2.33116C14.5145 -0.778962 17.5338 -0.776671 19.376 2.33574L31.2133 22.3409C33.0533 25.4533 31.5539 28 27.8809 28ZM16.0002 5.51687C15.0082 5.51687 14.2059 6.32302 14.2059 7.31469L15.1042 19.0063H16.8984L17.7967 7.31469C17.7944 6.32073 16.9921 5.51687 16.0002 5.51687ZM16.0002 20.8064C15.0082 20.8064 14.2059 21.6126 14.2059 22.6042C14.2059 23.5959 15.0082 24.4021 16.0002 24.4021C16.9921 24.4021 17.7944 23.5959 17.7944 22.6042C17.7944 21.6126 16.9921 20.8064 16.0002 20.8064Z" fill="#EA5E13"/>
</svg>
