<svg width="36" height="36" viewBox="0 0 36 36" fill="none" xmlns="http://www.w3.org/2000/svg">
<g id="&#232;&#175;&#134;&#229;&#136;&#171;&#229;&#135;&#134;&#231;&#161;&#174;&#231;&#142;&#135; 1">
<path id="Vector" d="M27.6697 18.599V7.60159C27.6697 6.03745 26.3917 4.76938 24.8158 4.76938H8.03172C6.45579 4.76938 5.17841 6.03745 5.17841 7.60159V28.5939C5.17841 30.1581 6.45579 31.4268 8.03172 31.4268C8.03172 31.4268 23.6731 31.4205 26.4451 31.4205" fill="#EA5E13"/>
<path id="Vector_2" d="M8.55992 33.0927C6.23544 33.0927 4.34482 31.1661 4.34482 28.7988V7.39739C4.34482 5.02945 6.23544 3.10345 8.5593 3.10345H25.1212C27.445 3.10345 29.3356 5.02945 29.3356 7.39739V18.6083H26.5376V7.39739C26.5376 6.58056 25.902 5.9158 25.1212 5.9158H8.5593C7.77847 5.9158 7.14289 6.57994 7.14289 7.39739V28.7988C7.14289 29.6156 7.77847 30.2797 8.5593 30.2797C8.5593 30.2797 23.9921 30.2735 26.7281 30.2735V33.0859C23.9928 33.0859 8.56054 33.0921 8.56054 33.0921L8.55992 33.0927Z" fill="#EA5E13"/>
<path id="Vector_3" d="M18.5059 25.1789C18.5059 26.2181 18.7105 27.2471 19.1082 28.2071C19.5059 29.1672 20.0888 30.0395 20.8236 30.7743C21.5584 31.5092 22.4307 32.092 23.3908 32.4897C24.3509 32.8874 25.3799 33.0921 26.419 33.0921C27.4582 33.0921 28.4872 32.8874 29.4473 32.4897C30.4073 32.092 31.2797 31.5092 32.0145 30.7743C32.7493 30.0395 33.3322 29.1672 33.7299 28.2071C34.1275 27.2471 34.3322 26.2181 34.3322 25.1789C34.3322 23.0802 33.4985 21.0674 32.0145 19.5834C30.5305 18.0994 28.5177 17.2657 26.419 17.2657C24.3203 17.2657 22.3076 18.0994 20.8236 19.5834C19.3396 21.0674 18.5059 23.0802 18.5059 25.1789Z" fill="#FFC9AC"/>
<path id="Vector_4" d="M26.4197 33.0927C22.0562 33.0927 18.5059 29.5423 18.5059 25.1789C18.5059 20.8155 22.0562 17.2651 26.4197 17.2651C30.7831 17.2651 34.3334 20.8155 34.3334 25.1789C34.3334 29.5423 30.7831 33.0927 26.4197 33.0927ZM26.4197 19.9937C23.5608 19.9937 21.235 22.32 21.235 25.1789C21.235 28.0378 23.5608 30.3635 26.4197 30.3635C29.2792 30.3635 31.6049 28.0378 31.6049 25.1789C31.6049 22.32 29.2792 19.9937 26.4197 19.9937Z" fill="#FFC9AC"/>
<path id="Vector_5" d="M15.2479 16.4321H9.04346C8.86373 16.4319 8.6858 16.3962 8.51985 16.3272C8.35389 16.2582 8.20316 16.1572 8.07624 16.0299C7.94933 15.9027 7.84872 15.7517 7.78016 15.5855C7.71161 15.4194 7.67645 15.2414 7.6767 15.0616C7.6767 14.3044 8.2887 13.6912 9.04346 13.6912H15.2479C16.0026 13.6912 16.6146 14.3044 16.6146 15.0616C16.6146 15.8189 16.0026 16.4321 15.2479 16.4321ZM19.6386 11.6752H9.04346C8.68058 11.6747 8.33276 11.5301 8.07646 11.2732C7.82016 11.0163 7.67637 10.6682 7.6767 10.3053C7.6767 9.54806 8.2887 8.93481 9.04346 8.93481H19.6386C20.3934 8.93481 21.0054 9.54806 21.0054 10.3053C21.0054 11.0619 20.3934 11.6752 19.6386 11.6752Z" fill="white"/>
<path id="Vector_6" d="M26.1298 29.1575C26.0165 29.1607 25.9037 29.1415 25.7978 29.1011C25.6919 29.0606 25.5951 28.9996 25.5128 28.9216C25.4304 28.8436 25.3642 28.7502 25.3179 28.6466C25.2716 28.543 25.2462 28.4313 25.2431 28.3178C25.2399 28.2044 25.2592 28.0915 25.2997 27.9855C25.3403 27.8795 25.4013 27.7825 25.4793 27.7001L30.8235 22.0562C30.981 21.8898 31.1982 21.7927 31.4273 21.7865C31.6563 21.7802 31.8785 21.8651 32.045 22.0227C32.2114 22.1802 32.3084 22.3974 32.3147 22.6265C32.321 22.8556 32.236 23.0778 32.0785 23.2442L26.7337 28.8881C26.6558 28.9706 26.5623 29.0369 26.4587 29.0831C26.355 29.1294 26.2433 29.1546 26.1298 29.1575Z" fill="#EA5E13"/>
<path id="Vector_7" d="M26.0026 29.0036C25.8891 29.0068 25.7762 28.9876 25.6702 28.947C25.5642 28.9064 25.4673 28.8453 25.385 28.7671L21.1779 24.7841C21.0193 24.6249 20.9289 24.4101 20.9261 24.1854C20.9232 23.9606 21.008 23.7436 21.1625 23.5804C21.317 23.4172 21.5291 23.3206 21.7536 23.3111C21.9782 23.3016 22.1976 23.3801 22.3653 23.5297L26.5723 27.5127C26.6964 27.6302 26.7828 27.7819 26.8207 27.9486C26.8585 28.1152 26.8461 28.2894 26.785 28.4489C26.7238 28.6085 26.6168 28.7464 26.4773 28.8451C26.3378 28.9439 26.1721 28.999 26.0013 29.0036H26.0026Z" fill="#EA5E13"/>
</g>
</svg>
