<svg width="120" height="120" viewBox="0 0 120 120" fill="none" xmlns="http://www.w3.org/2000/svg">
<g id="&#231;&#155;&#146;&#229;&#173;&#144; 3" clip-path="url(#clip0_209_170)">
<path id="Vector" d="M16.8925 8.58691H24.055C24.2912 8.58691 24.5177 8.68075 24.6848 8.84777C24.8518 9.0148 24.9456 9.24133 24.9456 9.47754C24.9456 9.71375 24.8518 9.94028 24.6848 10.1073C24.5177 10.2743 24.2912 10.3682 24.055 10.3682H16.8906C16.6544 10.3682 16.4279 10.2743 16.2609 10.1073C16.0938 9.94028 16 9.71375 16 9.47754C16 9.24133 16.0938 9.0148 16.2609 8.84777C16.4279 8.68075 16.6544 8.58691 16.8906 8.58691H16.8925Z" fill="#FFB400"/>
<path id="Vector_2" d="M20.4795 5C20.9726 5 21.3701 5.39938 21.3701 5.89063V13.0531C21.3701 13.2893 21.2763 13.5159 21.1093 13.6829C20.9422 13.8499 20.7157 13.9438 20.4795 13.9438C20.2433 13.9438 20.0168 13.8499 19.8497 13.6829C19.6827 13.5159 19.5889 13.2893 19.5889 13.0531V5.89063C19.5889 5.39938 19.9882 5 20.4795 5Z" fill="#FFB400"/>
<path id="Vector_3" d="M48.1327 11.6996L51.5902 12.6258C51.8202 12.688 52.0161 12.839 52.1347 13.0455C52.2534 13.2521 52.2851 13.4974 52.223 13.7274C52.1608 13.9574 52.0099 14.1533 51.8033 14.2719C51.5967 14.3906 51.3514 14.4224 51.1214 14.3602L47.6639 13.4339C47.4339 13.3718 47.2381 13.2208 47.1194 13.0142C47.0007 12.8076 46.969 12.5624 47.0311 12.3324C47.0933 12.1024 47.2443 11.9065 47.4508 11.7878C47.6574 11.6692 47.9027 11.6374 48.1327 11.6996Z" fill="#FFB400"/>
<path id="Vector_4" d="M54.5095 6.67232L55.4338 10.1298C55.4646 10.2437 55.4727 10.3625 55.4575 10.4795C55.4424 10.5965 55.4043 10.7094 55.3456 10.8117C55.2868 10.914 55.2085 11.0037 55.115 11.0757C55.0216 11.1477 54.9149 11.2006 54.801 11.2314C54.6871 11.2622 54.5683 11.2702 54.4513 11.2551C54.3343 11.2399 54.2215 11.2019 54.1192 11.1431C54.0169 11.0844 53.9272 11.006 53.8552 10.9126C53.7831 10.8192 53.7302 10.7125 53.6995 10.5986L52.7732 7.12982C52.742 7.01582 52.7337 6.89677 52.7487 6.77953C52.7637 6.66229 52.8018 6.54918 52.8607 6.44671C52.9196 6.34423 52.9982 6.25443 53.0919 6.18245C53.1857 6.11047 53.2927 6.05775 53.407 6.02732C53.6386 5.96936 53.8837 6.00441 54.0898 6.12497C54.2958 6.24554 54.4465 6.44202 54.5095 6.67232Z" fill="#FF6E1F"/>
<path id="Vector_5" d="M62.0451 9.67277L59.5138 12.204C59.431 12.2879 59.3323 12.3545 59.2235 12.4C59.1147 12.4455 58.998 12.4689 58.8801 12.4689C58.7622 12.4689 58.6454 12.4455 58.5367 12.4C58.4279 12.3545 58.3292 12.2879 58.2463 12.204C58.1627 12.1212 58.0963 12.0226 58.051 11.914C58.0057 11.8054 57.9824 11.6889 57.9824 11.5712C57.9824 11.4535 58.0057 11.337 58.051 11.2284C58.0963 11.1198 58.1627 11.0212 58.2463 10.9384L60.7776 8.40714C60.8606 8.32347 60.9593 8.25705 61.0681 8.21173C61.1768 8.1664 61.2935 8.14307 61.4113 8.14307C61.5292 8.14307 61.6458 8.1664 61.7546 8.21173C61.8634 8.25705 61.9621 8.32347 62.0451 8.40714C62.1285 8.49008 62.1947 8.58868 62.2398 8.69728C62.285 8.80589 62.3082 8.92234 62.3082 9.03996C62.3082 9.15757 62.285 9.27402 62.2398 9.38262C62.1947 9.49122 62.1285 9.58983 62.0451 9.67277Z" fill="#FFB400"/>
<path id="Vector_6" d="M107.473 44.7412L53.7356 37.5787V65.9775L107.473 71.6156V44.7412Z" fill="#F85C07"/>
<path id="Vector_7" d="M10.7476 46.8749L53.7357 37.5806V69.8212L10.7476 79.1156V46.8749Z" fill="#F87F3E"/>
<path id="Vector_8" d="M60.8962 57.6206L107.471 44.7394V105.639L60.8962 118.519V57.6206Z" fill="#F76312"/>
<path id="Vector_9" d="M10.7476 46.875L60.8963 57.6225V118.191L10.7476 105.99V46.875Z" fill="#FF7B32"/>
<path id="Vector_10" d="M60.8963 57.5287L10.7475 46.875L0 68.3719L51.9431 80.5725L60.8963 57.5287Z" fill="#FF965D"/>
<path id="Vector_11" d="M60.8962 57.6206L107.471 44.7394L120.013 66.2344L75.2306 80.9081L60.8962 57.6206Z" fill="#FF6E1F"/>
<path id="Vector_12" d="M86.0944 46.335C86.0944 46.335 88.0875 33.7725 98.4956 27.5138C98.4956 27.5138 99.4087 28.545 101.214 30.8644C101.214 30.8644 96.4781 30.1144 86.0944 46.3332V46.335Z" fill="#FF965D"/>
<path id="Vector_13" d="M60.8962 45.8194C60.8962 45.8194 61.0969 38.94 66.1369 23.4113C66.1369 23.4113 67.05 24.4425 68.8556 26.7619C68.8556 26.7619 66.9562 28.4156 60.8962 45.8194Z" fill="#FF6E1F"/>
<path id="Vector_14" d="M33.4238 45.1875C33.4238 45.1875 27.7519 28.5225 13.8638 21C13.8638 21 11.5425 24.2438 9.00001 25.275C8.98688 25.275 24.975 30.8438 33.4238 45.1875Z" fill="#FFD200"/>
<g id="&#232;&#161;&#163;&#230;&#156;&#141; (1) 1" clip-path="url(#clip1_209_170)">
<path id="Vector_15" d="M92.2681 11.3592L90.3949 15.9409L88.1041 15.0043L92.1992 24.6729L79.2251 30.117L75.1946 20.4213L74.258 22.7121L69.6764 20.839L72.4861 13.9665L74.0998 13.2894C75.5375 14.9066 78.1489 15.386 80.2628 14.499C82.3606 13.6187 83.9126 11.3923 83.7819 9.22666L85.3956 8.54954L92.2681 11.3592Z" fill="#FFB400"/>
</g>
<path id="Vector_16" d="M52.7471 19.9858C54.3715 18.8872 55.9854 17.7726 57.6248 16.6969C58.3736 16.2056 59.2281 16.0438 60.1252 16.1305C61.6369 16.2765 61.8265 17.7711 61.1903 18.5589C60.8357 18.9982 60.422 19.3901 60.0329 19.8013C59.3176 20.5574 58.752 21.4219 58.3043 22.3519C57.6478 23.7159 57.045 25.1057 56.4192 26.4845C56.333 26.6742 56.237 26.8599 56.1617 27.0536C56.0529 27.3338 55.8522 27.3857 55.5911 27.3078C55.3734 27.2427 55.1574 27.1715 54.94 27.1054C53.6968 26.7271 52.863 27.1117 52.3479 28.3017C52.2765 28.4667 52.2137 28.6356 52.1424 28.8007C51.9066 29.3466 51.6146 29.4543 51.1264 29.1073C50.7439 28.8354 50.3863 28.5181 50.0592 28.1807C49.2266 27.3221 48.6623 26.277 48.0766 25.2475C47.9769 25.0722 47.8117 24.9343 47.6775 24.7784C47.1823 24.203 47.2447 23.7055 47.8725 23.2799C49.4957 22.1796 51.1209 21.0819 52.7453 19.9833C52.7459 19.9841 52.7465 19.9849 52.7471 19.9858ZM56.549 23.9461C56.4999 23.8968 56.4895 23.8778 56.4741 23.8719C55.2181 23.3962 53.9621 22.9206 52.7042 22.4498C52.6411 22.4261 52.5445 22.4192 52.4923 22.4514C52.2464 22.6029 52.0104 22.7706 51.7712 22.9324C51.8027 22.9789 51.8095 23.0023 51.8233 23.0076C53.0877 23.4876 54.3521 23.9675 55.6187 24.4415C55.6798 24.4644 55.7752 24.4603 55.8289 24.4272C56.0689 24.2786 56.2995 24.1149 56.549 23.9461ZM57.2515 22.2823C57.1577 22.2331 57.1266 22.2105 57.0921 22.1996C56.1816 21.9107 55.2709 21.6222 54.3593 21.3369C54.2993 21.3181 54.214 21.2957 54.1704 21.323C53.9128 21.4839 53.664 21.659 53.353 21.8694C54.3961 22.1971 55.359 22.501 56.3237 22.7994C56.3795 22.8166 56.4619 22.8095 56.51 22.7791C56.7469 22.6296 56.9764 22.4684 57.2515 22.2823ZM55.0334 20.7253C55.0825 20.7676 55.0995 20.7923 55.1224 20.8004C55.8273 21.0498 56.5323 21.299 57.2389 21.5434C57.2961 21.5632 57.3809 21.574 57.4259 21.5458C57.6763 21.389 57.9185 21.2186 58.2236 21.0123C57.4081 20.727 56.6696 20.4673 55.9292 20.2129C55.8827 20.1969 55.8106 20.205 55.7694 20.2316C55.5253 20.3883 55.287 20.5538 55.0334 20.7253Z" fill="#FF965D"/>
<path id="Vector_17" d="M44.5544 48.4882C42.2274 46.6888 39.8828 44.9117 37.5815 43.0802C36.5303 42.2436 35.8992 41.1018 35.6022 39.783C35.1016 37.5606 37.1422 36.5897 38.563 37.1269C39.3551 37.4263 40.1075 37.8319 40.8758 38.1936C42.2885 38.8583 43.7854 39.2589 45.3204 39.4608C47.5718 39.7568 49.8346 39.9641 52.0927 40.2094C52.4032 40.2432 52.7128 40.293 53.0242 40.3094C53.4745 40.3331 53.6424 40.5948 53.6538 41.0033C53.6632 41.3441 53.663 41.6851 53.6707 42.0259C53.7146 43.9747 54.6534 44.9824 56.5904 45.1585C56.8591 45.1828 57.1291 45.1932 57.3979 45.2173C58.2862 45.2974 58.5766 45.663 58.311 46.5213C58.1029 47.1937 57.8184 47.852 57.4911 48.4763C56.658 50.0652 55.4334 51.3592 54.2412 52.6763C54.0382 52.9006 53.919 53.2006 53.7598 53.4649C53.1722 54.4402 52.434 54.5845 51.5333 53.8896C49.2045 52.0926 46.8786 50.2915 44.5517 48.4921C44.5524 48.4908 44.5534 48.4896 44.5544 48.4882ZM48.4148 41.2144C48.3676 41.3076 48.3454 41.3314 48.3443 41.356C48.2553 43.3687 48.1664 45.3812 48.0853 47.3942C48.0812 47.4953 48.1166 47.6361 48.187 47.6955C48.5181 47.9748 48.8677 48.2324 49.2104 48.4974C49.2619 48.4308 49.2921 48.41 49.2931 48.3879C49.3843 46.3613 49.4753 44.3347 49.5569 42.3078C49.5608 42.21 49.5103 42.0759 49.438 42.015C49.1137 41.7426 48.7723 41.4909 48.4148 41.2144ZM45.7148 40.9936C45.6887 41.1503 45.6711 41.2051 45.6717 41.2595C45.687 42.6922 45.7028 44.125 45.7237 45.5577C45.725 45.6521 45.7332 45.7841 45.7925 45.8334C46.1425 46.125 46.5086 46.3974 46.9541 46.7419C46.932 45.1021 46.9137 43.5875 46.8866 42.0731C46.885 41.9856 46.8362 41.8715 46.7704 41.8171C46.4462 41.5498 46.1089 41.2984 45.7148 40.9936ZM44.5363 44.884C44.5734 44.7942 44.6007 44.7583 44.6015 44.7219C44.6264 43.6006 44.6509 42.4793 44.6679 41.3579C44.6693 41.2672 44.645 41.1411 44.5837 41.0903C44.2428 40.807 43.8866 40.5418 43.4495 40.2038C43.4254 41.4995 43.4015 42.6736 43.3862 43.8478C43.3852 43.9216 43.4306 44.0204 43.4877 44.0667C43.8255 44.341 44.173 44.6031 44.5363 44.884Z" fill="#FFD200"/>
</g>
<defs>
<clipPath id="clip0_209_170">
<rect width="120" height="120" fill="white"/>
</clipPath>
<clipPath id="clip1_209_170">
<rect width="28" height="28" fill="white" transform="translate(64 11.834) rotate(-22.7636)"/>
</clipPath>
</defs>
</svg>
