<svg width="36" height="36" viewBox="0 0 36 36" fill="none" xmlns="http://www.w3.org/2000/svg">
<g id="&#231;&#137;&#169;&#230;&#150;&#153;&#231;&#174;&#161;&#231;&#144;&#134; 1">
<path id="Vector" d="M31.7523 12.0409C31.6756 11.415 30.8344 10.9313 29.8223 10.9313H27.0148L28.1417 18.2563H7.85722L8.98416 10.9313H6.17665C5.16454 10.9313 4.32335 11.415 4.24668 12.0409L2.31653 20.1345H33.6824L31.7523 12.0409ZM2.34001 20.1345V32.9062H33.7059V20.1345H2.34001ZM21.9672 28.3046H14.0788C13.0933 28.3046 12.2945 27.5058 12.2945 26.5204C12.2945 25.5349 13.0933 24.7361 14.0788 24.7361H21.9672C22.9526 24.7361 23.7515 25.5349 23.7515 26.5204C23.7515 27.5058 22.9526 28.3046 21.9672 28.3046Z" fill="#FF5A00"/>
<path id="Vector_2" d="M25.1725 17.451H10.9206C10.6032 17.451 10.3459 17.1938 10.3459 16.8764V11.506C10.3459 11.1886 10.6032 10.9313 10.9206 10.9313H25.1725C25.4899 10.9313 25.7471 11.1886 25.7471 11.506V16.8764C25.7472 17.1938 25.4899 17.451 25.1725 17.451ZM23.9009 10.5331H12.1922C11.9505 10.5331 11.7546 10.3371 11.7546 10.0955V6.3437C11.7546 6.10203 11.9505 5.90611 12.1922 5.90611H23.9009C24.1426 5.90611 24.3385 6.10203 24.3385 6.3437V10.0955C24.3385 10.3372 24.1426 10.5331 23.9009 10.5331ZM22.5154 5.54674H13.5777C13.5414 5.54674 13.5055 5.53961 13.472 5.52574C13.4385 5.51187 13.4081 5.49153 13.3825 5.4659C13.3568 5.44026 13.3365 5.40983 13.3226 5.37634C13.3088 5.34284 13.3016 5.30694 13.3016 5.27069V3.38115C13.3016 3.3449 13.3088 3.309 13.3226 3.27551C13.3365 3.24201 13.3568 3.21158 13.3825 3.18594C13.4081 3.16031 13.4385 3.13998 13.472 3.12611C13.5055 3.11224 13.5414 3.1051 13.5777 3.1051H22.5154C22.5886 3.1051 22.6588 3.13419 22.7106 3.18595C22.7624 3.23772 22.7915 3.30794 22.7915 3.38115V5.27073C22.7915 5.34393 22.7624 5.41414 22.7106 5.4659C22.6588 5.51766 22.5886 5.54674 22.5154 5.54674Z" fill="#FF5A00"/>
</g>
</svg>
