<svg width="32" height="32" viewBox="0 0 32 32" fill="none" xmlns="http://www.w3.org/2000/svg">
<path id="Vector" d="M16 0C7.16525 0 0 7.16525 0 16C0 24.8348 7.16167 32 16 32C24.8383 32 32 24.8383 32 16C32 7.16525 24.8383 0 16 0ZM20.1953 17.6229H15.7313C14.8356 17.6229 14.1084 16.8957 14.1084 16V7.51993C14.1084 6.62427 14.8356 5.897 15.7313 5.897C16.627 5.897 17.3542 6.62427 17.3542 7.51993V14.3807H20.1953C21.0909 14.3807 21.8182 15.1079 21.8182 16.0036C21.8182 16.8992 21.0909 17.6229 20.1953 17.6229Z" fill="#EA5E13"/>
</svg>
