<svg width="187" height="146" viewBox="0 0 187 146" fill="none" xmlns="http://www.w3.org/2000/svg">
<g id="Group 899">
<g id="Group 879">
<g id="Ellipse 9">
<mask id="path-1-inside-1_209_132" fill="white">
<path d="M146.56 81.2955C146.56 72.8752 144.901 64.5373 141.679 56.7579C138.457 48.9786 133.734 41.9101 127.779 35.956C121.825 30.0019 114.757 25.2789 106.978 22.0566C99.1982 18.8343 90.8603 17.1758 82.44 17.1758C74.0197 17.1758 65.6818 18.8343 57.9025 22.0566C50.1231 25.2789 43.0546 30.0019 37.1005 35.956C31.1465 41.9101 26.4234 48.9786 23.2011 56.7579C19.9788 64.5373 18.3203 72.8752 18.3203 81.2955L27.1886 81.2955C27.1886 74.0398 28.6177 66.8551 31.3944 60.1517C34.171 53.4483 38.2408 47.3574 43.3714 42.2268C48.5019 37.0963 54.5928 33.0265 61.2962 30.2499C67.9996 27.4732 75.1843 26.0441 82.44 26.0441C89.6957 26.0441 96.8804 27.4732 103.584 30.2499C110.287 33.0265 116.378 37.0963 121.509 42.2268C126.639 47.3574 130.709 53.4483 133.486 60.1517C136.262 66.8551 137.691 74.0398 137.691 81.2955H146.56Z"/>
</mask>
<path d="M146.56 81.2955C146.56 72.8752 144.901 64.5373 141.679 56.7579C138.457 48.9786 133.734 41.9101 127.779 35.956C121.825 30.0019 114.757 25.2789 106.978 22.0566C99.1982 18.8343 90.8603 17.1758 82.44 17.1758C74.0197 17.1758 65.6818 18.8343 57.9025 22.0566C50.1231 25.2789 43.0546 30.0019 37.1005 35.956C31.1465 41.9101 26.4234 48.9786 23.2011 56.7579C19.9788 64.5373 18.3203 72.8752 18.3203 81.2955L27.1886 81.2955C27.1886 74.0398 28.6177 66.8551 31.3944 60.1517C34.171 53.4483 38.2408 47.3574 43.3714 42.2268C48.5019 37.0963 54.5928 33.0265 61.2962 30.2499C67.9996 27.4732 75.1843 26.0441 82.44 26.0441C89.6957 26.0441 96.8804 27.4732 103.584 30.2499C110.287 33.0265 116.378 37.0963 121.509 42.2268C126.639 47.3574 130.709 53.4483 133.486 60.1517C136.262 66.8551 137.691 74.0398 137.691 81.2955H146.56Z" stroke="#FF6107" stroke-width="16.052" mask="url(#path-1-inside-1_209_132)"/>
</g>
<g id="Ellipse 10">
<mask id="path-2-inside-2_209_132" fill="white">
<path d="M18.3153 81.2955C18.3153 70.4271 21.0779 59.737 26.3437 50.2294C31.6094 40.7218 39.2055 32.7088 48.4184 26.9429C57.6312 21.177 68.1585 17.8475 79.0114 17.2672C89.8643 16.6869 100.687 18.8749 110.462 23.6255L106.585 31.6017C98.1623 27.5082 88.8368 25.6229 79.4849 26.1229C70.1331 26.6229 61.0618 29.4919 53.1232 34.4603C45.1845 39.4287 38.6391 46.3335 34.1016 54.5261C29.5641 62.7187 27.1836 71.9303 27.1836 81.2955H18.3153Z"/>
</mask>
<path d="M18.3153 81.2955C18.3153 70.4271 21.0779 59.737 26.3437 50.2294C31.6094 40.7218 39.2055 32.7088 48.4184 26.9429C57.6312 21.177 68.1585 17.8475 79.0114 17.2672C89.8643 16.6869 100.687 18.8749 110.462 23.6255L106.585 31.6017C98.1623 27.5082 88.8368 25.6229 79.4849 26.1229C70.1331 26.6229 61.0618 29.4919 53.1232 34.4603C45.1845 39.4287 38.6391 46.3335 34.1016 54.5261C29.5641 62.7187 27.1836 71.9303 27.1836 81.2955H18.3153Z" stroke="#FFEB85" stroke-width="16.052" mask="url(#path-2-inside-2_209_132)"/>
</g>
<g id="Ellipse 11">
<mask id="path-3-inside-3_209_132" fill="white">
<path d="M111.404 24.093C120.479 28.6888 128.33 35.3778 134.309 43.6075L127.135 48.82C121.983 41.7286 115.217 35.9648 107.397 32.0046L111.404 24.093Z"/>
</mask>
<path d="M111.404 24.093C120.479 28.6888 128.33 35.3778 134.309 43.6075L127.135 48.82C121.983 41.7286 115.217 35.9648 107.397 32.0046L111.404 24.093Z" stroke="#FF9735" stroke-width="16.052" mask="url(#path-3-inside-3_209_132)"/>
</g>
<line id="Line 1" x1="12.6016" y1="80.7933" x2="30.9215" y2="80.7933" stroke="#BFEAFF" stroke-width="1.00325"/>
<line id="Line 6" x1="132.82" y1="80.7933" x2="151.14" y2="80.7933" stroke="#BFEAFF" stroke-width="1.00325"/>
<line id="Line 2" x1="26.6088" y1="39.7026" x2="41.3925" y2="50.5221" stroke="#BFEAFF" stroke-width="1.00325"/>
<line id="Line 3" x1="57.7242" y1="17.0122" x2="63.6994" y2="34.3303" stroke="#BFEAFF" stroke-width="1.00325"/>
<line id="Line 4" x1="112.963" y1="19.6926" x2="104.646" y2="36.0159" stroke="#BFEAFF" stroke-width="1.00325"/>
<line id="Line 5" x1="138.598" y1="40.477" x2="123.959" y2="51.4903" stroke="#BFEAFF" stroke-width="1.00325"/>
</g>
<path id="0" d="M1.512 81.0938C1.512 82.4058 1.692 83.3538 2.052 83.9378C2.42 84.5138 2.956 84.8018 3.66 84.8018C4.364 84.8018 4.896 84.5138 5.256 83.9378C5.624 83.3538 5.808 82.4058 5.808 81.0938C5.808 79.7818 5.624 78.8378 5.256 78.2618C4.896 77.6778 4.364 77.3858 3.66 77.3858C2.956 77.3858 2.42 77.6778 2.052 78.2618C1.692 78.8378 1.512 79.7818 1.512 81.0938ZM0.6 81.0938C0.6 80.3098 0.672 79.6378 0.816 79.0778C0.96 78.5178 1.164 78.0578 1.428 77.6978C1.692 77.3378 2.012 77.0738 2.388 76.9058C2.764 76.7298 3.188 76.6418 3.66 76.6418C4.132 76.6418 4.556 76.7298 4.932 76.9058C5.308 77.0738 5.628 77.3378 5.892 77.6978C6.156 78.0578 6.36 78.5178 6.504 79.0778C6.648 79.6378 6.72 80.3098 6.72 81.0938C6.72 81.8778 6.648 82.5498 6.504 83.1098C6.36 83.6698 6.156 84.1298 5.892 84.4898C5.628 84.8498 5.308 85.1178 4.932 85.2938C4.556 85.4618 4.132 85.5458 3.66 85.5458C3.188 85.5458 2.764 85.4618 2.388 85.2938C2.012 85.1178 1.692 84.8498 1.428 84.4898C1.164 84.1298 0.96 83.6698 0.816 83.1098C0.672 82.5498 0.6 81.8778 0.6 81.0938Z" fill="#110600" fill-opacity="0.8"/>
<path id="40" d="M51.743 8.216H54.815V3.248H54.779L51.743 8.216ZM55.679 8.96V11H54.815V8.96H50.831V8.216L54.407 2.336H55.679V8.216H57.167V8.96H55.679ZM59.2229 6.668C59.2229 7.98 59.4029 8.928 59.7629 9.512C60.1309 10.088 60.6669 10.376 61.3709 10.376C62.0749 10.376 62.6069 10.088 62.9669 9.512C63.3349 8.928 63.5189 7.98 63.5189 6.668C63.5189 5.356 63.3349 4.412 62.9669 3.836C62.6069 3.252 62.0749 2.96 61.3709 2.96C60.6669 2.96 60.1309 3.252 59.7629 3.836C59.4029 4.412 59.2229 5.356 59.2229 6.668ZM58.3109 6.668C58.3109 5.884 58.3829 5.212 58.5269 4.652C58.6709 4.092 58.8749 3.632 59.1389 3.272C59.4029 2.912 59.7229 2.648 60.0989 2.48C60.4749 2.304 60.8989 2.216 61.3709 2.216C61.8429 2.216 62.2669 2.304 62.6429 2.48C63.0189 2.648 63.3389 2.912 63.6029 3.272C63.8669 3.632 64.0709 4.092 64.2149 4.652C64.3589 5.212 64.4309 5.884 64.4309 6.668C64.4309 7.452 64.3589 8.124 64.2149 8.684C64.0709 9.244 63.8669 9.704 63.6029 10.064C63.3389 10.424 63.0189 10.692 62.6429 10.868C62.2669 11.036 61.8429 11.12 61.3709 11.12C60.8989 11.12 60.4749 11.036 60.0989 10.868C59.7229 10.692 59.4029 10.424 59.1389 10.064C58.8749 9.704 58.6709 9.244 58.5269 8.684C58.3829 8.124 58.3109 7.452 58.3109 6.668Z" fill="#110600" fill-opacity="0.8"/>
<path id="60" d="M117.911 12.9401C117.911 12.6041 117.859 12.3081 117.755 12.0521C117.651 11.7961 117.515 11.5801 117.347 11.4041C117.179 11.2281 116.983 11.0961 116.759 11.0081C116.543 10.9201 116.323 10.8761 116.099 10.8761C115.835 10.8761 115.571 10.9281 115.307 11.0321C115.051 11.1281 114.819 11.2601 114.611 11.4281C114.403 11.5961 114.231 11.7921 114.095 12.0161C113.959 12.2401 113.883 12.4761 113.867 12.7241C113.875 13.0281 113.931 13.3161 114.035 13.5881C114.139 13.8601 114.279 14.1001 114.455 14.3081C114.639 14.5081 114.855 14.6681 115.103 14.7881C115.359 14.9001 115.643 14.9561 115.955 14.9561C116.259 14.9561 116.531 14.9081 116.771 14.8121C117.019 14.7081 117.227 14.5681 117.395 14.3921C117.563 14.2081 117.691 13.9961 117.779 13.7561C117.867 13.5081 117.911 13.2361 117.911 12.9401ZM117.983 8.03208C117.783 7.87208 117.571 7.75208 117.347 7.67208C117.123 7.58408 116.843 7.54008 116.507 7.54008C116.163 7.54008 115.831 7.61208 115.511 7.75608C115.199 7.90008 114.919 8.12008 114.671 8.41608C114.423 8.71208 114.223 9.08808 114.071 9.54408C113.927 10.0001 113.851 10.5401 113.843 11.1641C113.971 11.0281 114.111 10.9001 114.263 10.7801C114.415 10.6521 114.587 10.5401 114.779 10.4441C114.971 10.3481 115.183 10.2721 115.415 10.2161C115.647 10.1601 115.915 10.1321 116.219 10.1321C116.539 10.1321 116.855 10.1921 117.167 10.3121C117.479 10.4241 117.759 10.5961 118.007 10.8281C118.255 11.0521 118.451 11.3401 118.595 11.6921C118.747 12.0441 118.823 12.4521 118.823 12.9161C118.823 13.3801 118.743 13.7881 118.583 14.1401C118.431 14.4841 118.223 14.7721 117.959 15.0041C117.703 15.2361 117.407 15.4121 117.071 15.5321C116.735 15.6441 116.387 15.7001 116.027 15.7001C115.579 15.7001 115.163 15.6321 114.779 15.4961C114.403 15.3521 114.075 15.1241 113.795 14.8121C113.523 14.4921 113.311 14.0761 113.159 13.5641C113.007 13.0521 112.931 12.4281 112.931 11.6921C112.931 11.0121 113.007 10.3761 113.159 9.78408C113.311 9.18408 113.535 8.66408 113.831 8.22408C114.135 7.77608 114.507 7.42808 114.947 7.18008C115.387 6.92408 115.899 6.79608 116.483 6.79608C116.955 6.79608 117.351 6.85208 117.671 6.96408C117.999 7.06808 118.227 7.18008 118.355 7.30008L117.983 8.03208ZM121.059 11.2481C121.059 12.5601 121.239 13.5081 121.599 14.0921C121.967 14.6681 122.503 14.9561 123.207 14.9561C123.911 14.9561 124.443 14.6681 124.803 14.0921C125.171 13.5081 125.355 12.5601 125.355 11.2481C125.355 9.93608 125.171 8.99208 124.803 8.41608C124.443 7.83208 123.911 7.54008 123.207 7.54008C122.503 7.54008 121.967 7.83208 121.599 8.41608C121.239 8.99208 121.059 9.93608 121.059 11.2481ZM120.147 11.2481C120.147 10.4641 120.219 9.79208 120.363 9.23208C120.507 8.67208 120.711 8.21208 120.975 7.85208C121.239 7.49208 121.559 7.22808 121.935 7.06008C122.311 6.88408 122.735 6.79608 123.207 6.79608C123.679 6.79608 124.103 6.88408 124.479 7.06008C124.855 7.22808 125.175 7.49208 125.439 7.85208C125.703 8.21208 125.907 8.67208 126.051 9.23208C126.195 9.79208 126.267 10.4641 126.267 11.2481C126.267 12.0321 126.195 12.7041 126.051 13.2641C125.907 13.8241 125.703 14.2841 125.439 14.6441C125.175 15.0041 124.855 15.2721 124.479 15.4481C124.103 15.6161 123.679 15.7001 123.207 15.7001C122.735 15.7001 122.311 15.6161 121.935 15.4481C121.559 15.2721 121.239 15.0041 120.975 14.6441C120.711 14.2841 120.507 13.8241 120.363 13.2641C120.219 12.7041 120.147 12.0321 120.147 11.2481Z" fill="#110600" fill-opacity="0.8"/>
<path id="80" d="M155.536 37.5331C155.536 37.2931 155.48 37.0891 155.368 36.9211C155.264 36.7451 155.124 36.6011 154.948 36.4891C154.772 36.3771 154.572 36.2971 154.348 36.2491C154.124 36.1931 153.892 36.1651 153.652 36.1651C153.412 36.1651 153.18 36.1931 152.956 36.2491C152.732 36.2971 152.532 36.3771 152.356 36.4891C152.18 36.6011 152.036 36.7451 151.924 36.9211C151.82 37.0891 151.768 37.2931 151.768 37.5331C151.768 37.7651 151.832 37.9731 151.96 38.1571C152.088 38.3411 152.248 38.5051 152.44 38.6491C152.632 38.7851 152.836 38.9011 153.052 38.9971C153.276 39.0851 153.476 39.1531 153.652 39.2011C153.892 39.1451 154.124 39.0651 154.348 38.9611C154.58 38.8571 154.78 38.7371 154.948 38.6011C155.124 38.4571 155.264 38.2971 155.368 38.1211C155.48 37.9371 155.536 37.7411 155.536 37.5331ZM151.408 41.9491C151.408 42.1411 151.452 42.3371 151.54 42.5371C151.628 42.7291 151.76 42.9051 151.936 43.0651C152.12 43.2171 152.352 43.3411 152.632 43.4371C152.92 43.5331 153.26 43.5811 153.652 43.5811C154.044 43.5811 154.38 43.5331 154.66 43.4371C154.948 43.3411 155.18 43.2171 155.356 43.0651C155.54 42.9051 155.676 42.7291 155.764 42.5371C155.852 42.3371 155.896 42.1411 155.896 41.9491C155.896 41.7011 155.836 41.4811 155.716 41.2891C155.596 41.0891 155.428 40.9131 155.212 40.7611C154.996 40.6011 154.74 40.4611 154.444 40.3411C154.156 40.2131 153.84 40.0931 153.496 39.9811C153.232 40.0931 152.972 40.2131 152.716 40.3411C152.468 40.4611 152.248 40.6011 152.056 40.7611C151.864 40.9131 151.708 41.0891 151.588 41.2891C151.468 41.4811 151.408 41.7011 151.408 41.9491ZM156.808 41.9491C156.808 42.2771 156.744 42.5851 156.616 42.8731C156.488 43.1611 156.292 43.4131 156.028 43.6291C155.764 43.8451 155.432 44.0171 155.032 44.1451C154.64 44.2651 154.18 44.3251 153.652 44.3251C153.124 44.3251 152.66 44.2651 152.26 44.1451C151.868 44.0171 151.54 43.8451 151.276 43.6291C151.012 43.4131 150.816 43.1611 150.688 42.8731C150.56 42.5851 150.496 42.2771 150.496 41.9491C150.496 41.6771 150.544 41.4251 150.64 41.1931C150.744 40.9531 150.88 40.7371 151.048 40.5451C151.224 40.3451 151.428 40.1691 151.66 40.0171C151.892 39.8571 152.136 39.7171 152.392 39.5971V39.5731C151.912 39.3891 151.536 39.1251 151.264 38.7811C150.992 38.4371 150.856 38.0371 150.856 37.5811C150.856 37.2291 150.924 36.9171 151.06 36.6451C151.204 36.3731 151.4 36.1491 151.648 35.9731C151.904 35.7891 152.2 35.6531 152.536 35.5651C152.88 35.4691 153.252 35.4211 153.652 35.4211C154.052 35.4211 154.42 35.4691 154.756 35.5651C155.1 35.6531 155.396 35.7891 155.644 35.9731C155.9 36.1491 156.096 36.3731 156.232 36.6451C156.376 36.9171 156.448 37.2291 156.448 37.5811C156.448 38.0371 156.312 38.4371 156.04 38.7811C155.768 39.1251 155.392 39.3891 154.912 39.5731V39.5971C155.168 39.6931 155.412 39.8131 155.644 39.9571C155.876 40.1011 156.076 40.2731 156.244 40.4731C156.42 40.6731 156.556 40.8971 156.652 41.1451C156.756 41.3851 156.808 41.6531 156.808 41.9491ZM158.84 39.8731C158.84 41.1851 159.02 42.1331 159.38 42.7171C159.748 43.2931 160.284 43.5811 160.988 43.5811C161.692 43.5811 162.224 43.2931 162.584 42.7171C162.952 42.1331 163.136 41.1851 163.136 39.8731C163.136 38.5611 162.952 37.6171 162.584 37.0411C162.224 36.4571 161.692 36.1651 160.988 36.1651C160.284 36.1651 159.748 36.4571 159.38 37.0411C159.02 37.6171 158.84 38.5611 158.84 39.8731ZM157.928 39.8731C157.928 39.0891 158 38.4171 158.144 37.8571C158.288 37.2971 158.492 36.8371 158.756 36.4771C159.02 36.1171 159.34 35.8531 159.716 35.6851C160.092 35.5091 160.516 35.4211 160.988 35.4211C161.46 35.4211 161.884 35.5091 162.26 35.6851C162.636 35.8531 162.956 36.1171 163.22 36.4771C163.484 36.8371 163.688 37.2971 163.832 37.8571C163.976 38.4171 164.048 39.0891 164.048 39.8731C164.048 40.6571 163.976 41.3291 163.832 41.8891C163.688 42.4491 163.484 42.9091 163.22 43.2691C162.956 43.6291 162.636 43.8971 162.26 44.0731C161.884 44.2411 161.46 44.3251 160.988 44.3251C160.516 44.3251 160.092 44.2411 159.716 44.0731C159.34 43.8971 159.02 43.6291 158.756 43.2691C158.492 42.9091 158.288 42.4491 158.144 41.8891C158 41.3291 157.928 40.6571 157.928 39.8731Z" fill="#110600" fill-opacity="0.8"/>
<path id="100" d="M162.157 87.7148V86.9708H163.657V79.9268L161.989 80.0948V79.5308C162.293 79.4428 162.597 79.3508 162.901 79.2548C163.213 79.1588 163.465 79.0508 163.657 78.9308H164.521V86.9708H165.997V87.7148H162.157ZM169.145 83.3828C169.145 84.6948 169.325 85.6428 169.685 86.2268C170.053 86.8028 170.589 87.0908 171.293 87.0908C171.997 87.0908 172.529 86.8028 172.889 86.2268C173.257 85.6428 173.441 84.6948 173.441 83.3828C173.441 82.0708 173.257 81.1268 172.889 80.5508C172.529 79.9668 171.997 79.6748 171.293 79.6748C170.589 79.6748 170.053 79.9668 169.685 80.5508C169.325 81.1268 169.145 82.0708 169.145 83.3828ZM168.233 83.3828C168.233 82.5988 168.305 81.9268 168.449 81.3668C168.593 80.8068 168.797 80.3468 169.061 79.9868C169.325 79.6268 169.645 79.3628 170.021 79.1948C170.397 79.0188 170.821 78.9308 171.293 78.9308C171.765 78.9308 172.189 79.0188 172.565 79.1948C172.941 79.3628 173.261 79.6268 173.525 79.9868C173.789 80.3468 173.993 80.8068 174.137 81.3668C174.281 81.9268 174.353 82.5988 174.353 83.3828C174.353 84.1668 174.281 84.8388 174.137 85.3988C173.993 85.9588 173.789 86.4188 173.525 86.7788C173.261 87.1388 172.941 87.4068 172.565 87.5828C172.189 87.7508 171.765 87.8348 171.293 87.8348C170.821 87.8348 170.397 87.7508 170.021 87.5828C169.645 87.4068 169.325 87.1388 169.061 86.7788C168.797 86.4188 168.593 85.9588 168.449 85.3988C168.305 84.8388 168.233 84.1668 168.233 83.3828ZM176.481 83.3828C176.481 84.6948 176.661 85.6428 177.021 86.2268C177.389 86.8028 177.925 87.0908 178.629 87.0908C179.333 87.0908 179.865 86.8028 180.225 86.2268C180.593 85.6428 180.777 84.6948 180.777 83.3828C180.777 82.0708 180.593 81.1268 180.225 80.5508C179.865 79.9668 179.333 79.6748 178.629 79.6748C177.925 79.6748 177.389 79.9668 177.021 80.5508C176.661 81.1268 176.481 82.0708 176.481 83.3828ZM175.569 83.3828C175.569 82.5988 175.641 81.9268 175.785 81.3668C175.929 80.8068 176.133 80.3468 176.397 79.9868C176.661 79.6268 176.981 79.3628 177.357 79.1948C177.733 79.0188 178.157 78.9308 178.629 78.9308C179.101 78.9308 179.525 79.0188 179.901 79.1948C180.277 79.3628 180.597 79.6268 180.861 79.9868C181.125 80.3468 181.329 80.8068 181.473 81.3668C181.617 81.9268 181.689 82.5988 181.689 83.3828C181.689 84.1668 181.617 84.8388 181.473 85.3988C181.329 85.9588 181.125 86.4188 180.861 86.7788C180.597 87.1388 180.277 87.4068 179.901 87.5828C179.525 87.7508 179.101 87.8348 178.629 87.8348C178.157 87.8348 177.733 87.7508 177.357 87.5828C176.981 87.4068 176.661 87.1388 176.397 86.7788C176.133 86.4188 175.929 85.9588 175.785 85.3988C175.641 84.8388 175.569 84.1668 175.569 83.3828Z" fill="#110600" fill-opacity="0.8"/>
<path id="20" d="M15.5763 39.625H9.94825V38.713C10.1963 38.209 10.4843 37.777 10.8123 37.417C11.1483 37.049 11.4883 36.725 11.8323 36.445C12.1843 36.165 12.5283 35.909 12.8643 35.677C13.2083 35.445 13.5123 35.209 13.7763 34.969C14.0483 34.729 14.2643 34.469 14.4243 34.189C14.5923 33.901 14.6763 33.561 14.6763 33.169C14.6763 32.665 14.5203 32.277 14.2083 32.005C13.9043 31.725 13.4763 31.585 12.9243 31.585C12.6123 31.585 12.3363 31.645 12.0963 31.765C11.8563 31.877 11.6523 32.025 11.4843 32.209C11.3163 32.385 11.1803 32.585 11.0763 32.809C10.9803 33.033 10.9163 33.253 10.8843 33.469L10.0323 33.277C10.1043 32.981 10.2043 32.689 10.3323 32.401C10.4603 32.105 10.6363 31.841 10.8603 31.609C11.0923 31.377 11.3763 31.193 11.7123 31.057C12.0563 30.913 12.4683 30.841 12.9483 30.841C13.3003 30.841 13.6363 30.893 13.9563 30.997C14.2763 31.093 14.5563 31.241 14.7963 31.441C15.0363 31.633 15.2283 31.873 15.3723 32.161C15.5163 32.449 15.5883 32.777 15.5883 33.145C15.5883 33.585 15.4923 33.977 15.3003 34.321C15.1083 34.665 14.8643 34.985 14.5683 35.281C14.2723 35.569 13.9403 35.845 13.5723 36.109C13.2123 36.373 12.8563 36.645 12.5043 36.925C12.1523 37.205 11.8283 37.505 11.5323 37.825C11.2363 38.137 11.0123 38.489 10.8603 38.881H15.5763V39.625ZM18.0042 35.293C18.0042 36.605 18.1842 37.553 18.5442 38.137C18.9122 38.713 19.4482 39.001 20.1522 39.001C20.8562 39.001 21.3882 38.713 21.7482 38.137C22.1162 37.553 22.3002 36.605 22.3002 35.293C22.3002 33.981 22.1162 33.037 21.7482 32.461C21.3882 31.877 20.8562 31.585 20.1522 31.585C19.4482 31.585 18.9122 31.877 18.5442 32.461C18.1842 33.037 18.0042 33.981 18.0042 35.293ZM17.0922 35.293C17.0922 34.509 17.1642 33.837 17.3082 33.277C17.4522 32.717 17.6562 32.257 17.9202 31.897C18.1842 31.537 18.5042 31.273 18.8802 31.105C19.2562 30.929 19.6802 30.841 20.1522 30.841C20.6242 30.841 21.0482 30.929 21.4242 31.105C21.8002 31.273 22.1202 31.537 22.3842 31.897C22.6482 32.257 22.8522 32.717 22.9962 33.277C23.1402 33.837 23.2122 34.509 23.2122 35.293C23.2122 36.077 23.1402 36.749 22.9962 37.309C22.8522 37.869 22.6482 38.329 22.3842 38.689C22.1202 39.049 21.8002 39.317 21.4242 39.493C21.0482 39.661 20.6242 39.745 20.1522 39.745C19.6802 39.745 19.2562 39.661 18.8802 39.493C18.5042 39.317 18.1842 39.049 17.9202 38.689C17.6562 38.329 17.4522 37.869 17.3082 37.309C17.1642 36.749 17.0922 36.077 17.0922 35.293Z" fill="#110600" fill-opacity="0.8"/>
<g id="Group 878">
<circle id="Ellipse 18" cx="102.72" cy="39.9521" r="1.78836" fill="#EA5E13" fill-opacity="0.5" stroke="#EA5E13" stroke-width="1.00325"/>
<circle id="Ellipse 16" cx="44.5166" cy="52.5048" r="1.78836" fill="#EA5E13" fill-opacity="0.5" stroke="#EA5E13" stroke-width="1.00325"/>
<circle id="Ellipse 22" cx="35.3837" cy="81.038" r="1.78836" fill="#EA5E13" fill-opacity="0.5" stroke="#EA5E13" stroke-width="1.00325"/>
<circle id="Ellipse 17" cx="65.0634" cy="37.6689" r="1.78836" fill="#EA5E13" fill-opacity="0.5" stroke="#EA5E13" stroke-width="1.00325"/>
<circle id="Ellipse 20" cx="120.985" cy="53.6474" r="1.78836" fill="#EA5E13" fill-opacity="0.5" stroke="#EA5E13" stroke-width="1.00325"/>
<circle id="Ellipse 21" cx="128.97" cy="81.038" r="1.78836" fill="#EA5E13" fill-opacity="0.5" stroke="#EA5E13" stroke-width="1.00325"/>
</g>
</g>
</svg>
