<svg width="36" height="36" viewBox="0 0 36 36" fill="none" xmlns="http://www.w3.org/2000/svg">
<g id="&#233;&#157;&#162;&#230;&#128;&#167;&#229;&#191;&#171;&#233;&#128;&#146;&#231;&#174;&#177;&#231;&#186;&#184;&#231;&#174;&#177;&#231;&#174;&#177;&#229;&#173;&#144;2.5d 1">
<path id="Vector" d="M33.3044 10.8208H33.377C33.3979 10.8208 33.4149 10.8208 33.4358 10.8246H33.4421C33.4636 10.8284 33.4838 10.8284 33.5014 10.8322C33.5046 10.8322 33.5078 10.8322 33.5153 10.836C33.5356 10.8398 33.5532 10.8436 33.5741 10.8511H33.5804C33.5981 10.8549 33.6151 10.8625 33.6328 10.8701C33.636 10.8701 33.6391 10.8732 33.6429 10.8732L33.6979 10.896C33.7017 10.896 33.7048 10.8998 33.7086 10.8998C33.7257 10.9073 33.7433 10.9187 33.7604 10.9294L23.2983 4.75892C23.2882 4.75071 23.2774 4.74755 23.2667 4.73997L23.2465 4.72861C23.2433 4.72861 23.2402 4.72482 23.2364 4.72482C23.2181 4.71663 23.1996 4.70905 23.1808 4.70208C23.1777 4.70208 23.1745 4.69892 23.1707 4.69892C23.153 4.69134 23.136 4.68755 23.1189 4.67997H23.1082C23.0911 4.67618 23.0703 4.66861 23.0532 4.66482C23.0494 4.66482 23.0463 4.66482 23.0393 4.66103C23.02 4.65687 23.0004 4.65434 22.9806 4.65345H22.9737C22.9566 4.65345 22.9358 4.64966 22.9149 4.64966H22.8284C22.8063 4.65033 22.7844 4.65286 22.7627 4.65724L2.80608 7.69639C2.78258 7.69942 2.75935 7.70428 2.73661 7.71092C2.73029 7.71092 2.7265 7.71471 2.71955 7.71471C2.69932 7.7188 2.67962 7.72516 2.66082 7.73366C2.65766 7.73366 2.65766 7.73366 2.6545 7.73745L2.58818 7.76018C2.58187 7.76334 2.57808 7.76334 2.57113 7.76713C2.55408 7.77471 2.53324 7.78229 2.51619 7.79366C2.5124 7.79366 2.5124 7.79745 2.50924 7.79745H2.50545C2.48145 7.80882 2.45745 7.82334 2.42966 7.8385C2.42587 7.84229 2.42271 7.84229 2.41892 7.84608C2.39457 7.86021 2.37153 7.87648 2.35008 7.89471C2.34692 7.89471 2.34692 7.8985 2.34376 7.8985L2.33618 7.90608C2.31861 7.9178 2.30249 7.93158 2.28818 7.94713C2.2844 7.94713 2.2844 7.95092 2.28124 7.95092C2.26355 7.96545 2.2465 7.98061 2.22945 7.99955C2.22566 7.99955 2.22566 8.00334 2.2225 8.00334L2.21555 8.01092C2.20166 8.02166 2.19155 8.03682 2.17766 8.04818L2.16376 8.06271C2.14987 8.08166 2.13218 8.09682 2.11892 8.11513L2.11197 8.12271C2.09933 8.1368 2.08772 8.15179 2.07724 8.16755C2.07408 8.17134 2.07092 8.17892 2.06334 8.1865L2.0324 8.23134C2.02861 8.23513 2.02861 8.23892 2.02545 8.24271C2.02545 8.24271 2.02545 8.2465 2.02229 8.2465C2.0084 8.26545 1.99766 8.28755 1.9844 8.30966C1.98042 8.31385 1.97778 8.31912 1.97682 8.32482C1.96671 8.34376 1.95661 8.35892 1.94966 8.37724C1.94587 8.38103 1.94587 8.38482 1.94271 8.38861C1.94271 8.38861 1.94271 8.3924 1.93892 8.3924C1.92503 8.41829 1.91492 8.44482 1.90482 8.47071C1.90103 8.4745 1.90103 8.48208 1.89787 8.48587C1.88713 8.51239 1.87703 8.54208 1.86629 8.56797V8.57176C1.86256 8.58014 1.86042 8.58913 1.85997 8.59829C1.8561 8.60643 1.85374 8.6152 1.85303 8.62418C1.84924 8.63555 1.84608 8.64313 1.84608 8.6545C1.84229 8.66208 1.84229 8.67345 1.83913 8.6804C1.83534 8.69176 1.83534 8.70313 1.83218 8.71071C1.8284 8.71766 1.8284 8.72966 1.82524 8.73661C1.82145 8.74797 1.82145 8.75934 1.81829 8.77008C1.81829 8.77766 1.8145 8.78903 1.8145 8.79661C1.81134 8.80797 1.81134 8.81871 1.81134 8.83008C1.81134 8.83766 1.80755 8.84524 1.80755 8.85661C1.80755 8.86734 1.8044 8.87871 1.8044 8.89008C1.8044 8.89766 1.80124 8.90524 1.80124 8.91282C1.80124 8.92355 1.79745 8.93871 1.79745 8.95008V9.03218L1.76587 26.1796C1.76587 26.6027 1.95282 26.9393 2.23324 27.1042L12.7017 33.2753C12.4219 33.1111 12.2356 32.7701 12.2356 32.3507L12.2665 15.2033V15.1212C12.2665 15.1099 12.2665 15.0947 12.2697 15.0833C12.2697 15.0764 12.2735 15.0688 12.2735 15.0612C12.2735 15.0499 12.2766 15.0385 12.2766 15.0278C12.2766 15.0202 12.2804 15.0126 12.2804 15.0012C12.2804 14.9899 12.2836 14.9791 12.2836 14.9678C12.2836 14.9602 12.2873 14.9488 12.2873 14.9412C12.2905 14.9305 12.2905 14.9191 12.2937 14.9078C12.2974 14.9002 12.2974 14.8888 12.3012 14.8819C12.3044 14.8705 12.3044 14.8591 12.3076 14.8516C12.3113 14.844 12.3113 14.8326 12.3145 14.8257C12.3183 14.8143 12.3214 14.8067 12.3214 14.7953C12.3253 14.7872 12.3277 14.7784 12.3284 14.7694L12.3391 14.7391L12.3701 14.657C12.3732 14.6532 12.3732 14.6457 12.3764 14.6419C12.3871 14.616 12.4017 14.5894 12.4118 14.5636C12.4153 14.5592 12.4175 14.5539 12.4181 14.5484C12.4288 14.5294 12.4358 14.5111 12.4459 14.496C12.4495 14.4919 12.4519 14.4868 12.4528 14.4814C12.4667 14.4587 12.4768 14.4398 12.4907 14.4177C12.4945 14.4139 12.4977 14.4101 12.5014 14.4025L12.5324 14.3577C12.5356 14.3501 12.5387 14.3463 12.5463 14.3387C12.5564 14.3242 12.5703 14.309 12.581 14.2945C12.5842 14.2901 12.5842 14.2863 12.5873 14.2863C12.6012 14.2673 12.6189 14.2528 12.6328 14.2339L12.6461 14.2193L12.6808 14.1814C12.6846 14.1783 12.6916 14.1745 12.6947 14.1669C12.7118 14.1518 12.7294 14.1328 12.7465 14.1183C12.7503 14.1145 12.7503 14.1145 12.7534 14.1145L12.8021 14.0734C12.8052 14.0697 12.8122 14.0659 12.8153 14.0621C12.84 14.0469 12.8608 14.0286 12.8848 14.0134C12.888 14.0097 12.8911 14.0097 12.8949 14.0059C12.919 13.9901 12.9443 13.9763 12.9707 13.9648C12.9745 13.9648 12.9777 13.961 12.9814 13.961C12.9985 13.9534 13.0162 13.9421 13.0364 13.9345C13.0433 13.9313 13.0471 13.9313 13.0541 13.9276C13.0749 13.92 13.0951 13.9124 13.1198 13.9048C13.1229 13.9048 13.1229 13.9048 13.1261 13.901C13.1469 13.8934 13.1678 13.8897 13.1886 13.8821C13.1956 13.8821 13.1987 13.8789 13.2057 13.8789C13.2303 13.8751 13.2505 13.8676 13.2751 13.8638L33.2286 10.8246C33.2495 10.8208 33.2728 10.8208 33.2943 10.8177C33.2975 10.8208 33.3006 10.8208 33.3044 10.8208Z" fill="url(#paint0_linear_248_525)"/>
<path id="Vector_2" d="M21.4472 12.6253L10.9781 6.45411L14.5845 5.90717L25.0529 12.0752L21.4472 12.6253Z" fill="#FFA300"/>
<path id="Vector_3" d="M26.3583 20.4612C26.9109 20.3753 27.3669 20.832 27.3669 21.4869L27.3568 28.193C27.3568 28.8404 26.9039 29.4436 26.345 29.5257L20.0999 30.4793C19.5473 30.5659 19.0913 30.1092 19.0913 29.4543L19.102 22.7444C19.102 22.097 19.5543 21.4939 20.1138 21.4118L26.3583 20.4612ZM25.889 27.5829C26.1201 27.5495 26.3103 27.3025 26.3065 27.0335C26.3065 26.7676 26.1233 26.5724 25.8921 26.6103L20.5698 27.4225C20.3418 27.456 20.1517 27.6991 20.1517 27.972C20.1517 28.2379 20.3349 28.433 20.566 28.3951L25.889 27.5829ZM25.8921 25.6257C26.1233 25.5922 26.3134 25.3415 26.3103 25.0762C26.3103 24.8103 26.1271 24.6151 25.8959 24.653L20.573 25.4652C20.3456 25.4987 20.1555 25.7419 20.1555 26.0147C20.1555 26.2806 20.3387 26.4758 20.5698 26.4379L25.8921 25.6257ZM20.5705 22.9137C20.3425 22.9471 20.1524 23.1903 20.1524 23.4631C20.1524 23.729 20.3355 23.9242 20.5667 23.8863L21.617 23.7252C21.8482 23.6918 22.0351 23.441 22.0351 23.1758C22.0351 22.9099 21.8519 22.7147 21.6201 22.7526L20.5705 22.9137Z" fill="white"/>
<path id="Vector_4" d="M25.8885 26.6103C26.1203 26.5762 26.3034 26.7676 26.3034 27.0335C26.3066 27.3025 26.1203 27.5495 25.8853 27.5829L20.563 28.3952C20.3312 28.4293 20.1487 28.2379 20.1487 27.972C20.1487 27.6992 20.3382 27.456 20.5662 27.4225L25.8891 26.6103H25.8885ZM25.8923 24.6493C26.1234 24.6158 26.3066 24.8065 26.3066 25.0724C26.3104 25.3377 26.1234 25.5884 25.8891 25.6219L20.5662 26.4341C20.335 26.4682 20.1518 26.2768 20.1518 26.0109C20.1518 25.7381 20.3413 25.4949 20.5699 25.4615L25.8923 24.6493Z" fill="#00A4FF"/>
<path id="Vector_5" d="M25.0528 12.0751L25.0427 18.2532C25.0427 18.5791 24.8147 18.8785 24.5349 18.9233L21.9372 19.32C21.6575 19.361 21.4364 19.1292 21.4364 18.8033L21.4471 12.6252L25.0535 12.0751H25.0528Z" fill="#FDF17F"/>
<path id="Vector_6" d="M33.2249 10.8284C33.7807 10.7425 34.2335 11.1992 34.2335 11.8541L34.2019 29.0091C34.1988 29.6602 33.7465 30.2514 33.1908 30.3379L13.2404 33.3764C12.6847 33.4623 12.2318 33.0057 12.2318 32.3507L12.2634 15.2034C12.2634 14.556 12.7156 13.9535 13.2752 13.8707L33.2249 10.8284ZM27.3537 28.1937L27.3644 21.4876C27.3644 20.8326 26.9116 20.376 26.3558 20.4619L20.1108 21.4124C19.5512 21.499 19.1028 22.0977 19.099 22.7451L19.0889 29.455C19.0889 30.1099 19.5411 30.5665 20.0975 30.4806L26.3419 29.5263C26.9015 29.4442 27.3537 28.8449 27.3537 28.1937ZM21.4478 12.6253L21.4371 18.804C21.4371 19.1299 21.6581 19.3579 21.9379 19.3206L24.5356 18.924C24.8154 18.883 25.0434 18.5798 25.0434 18.2545L25.0535 12.0758L21.4472 12.6253" fill="#FB7830"/>
<path id="Vector_7" d="M21.6195 22.752C21.8513 22.7179 22.0345 22.9092 22.0345 23.1751C22.0376 23.4404 21.8513 23.6911 21.6164 23.7246L20.566 23.8857C20.3349 23.9191 20.1517 23.7284 20.1517 23.4625C20.1517 23.1897 20.3412 22.9465 20.5698 22.913L21.6195 22.752Z" fill="#F77490"/>
</g>
<defs>
<linearGradient id="paint0_linear_248_525" x1="17.7631" y1="4.64966" x2="7.5" y2="27.5" gradientUnits="userSpaceOnUse">
<stop stop-color="#FE7328"/>
<stop offset="1" stop-color="#EA5E13"/>
</linearGradient>
</defs>
</svg>
