<svg width="36" height="36" viewBox="0 0 36 36" fill="none" xmlns="http://www.w3.org/2000/svg">
<g id="&#231;&#144;&#131;&#228;&#189;&#147;2 1">
<path id="Vector" d="M18 1.79999C9.0171 1.79999 1.8 9.01709 1.8 18C1.8 26.9829 9.0171 34.2 18 34.2C26.9829 34.2 34.2 26.9829 34.2 18C34.2 9.01709 26.9829 1.79999 18 1.79999ZM24.2973 13.5855C23.6214 14.4054 22.5396 14.8149 21.4623 14.8149C20.3814 14.8149 19.4373 14.4054 18.6273 13.5855C17.8173 12.7656 17.4123 11.8071 17.4123 10.7145C17.4123 9.62099 17.8173 8.66249 18.6273 7.84259C20.2473 6.33959 22.6773 6.33959 24.2973 7.84259C25.1073 8.52659 25.5123 9.62099 25.5123 10.7136C25.5123 11.808 25.1073 12.9006 24.2973 13.5855Z" fill="#EA5E13"/>
</g>
</svg>
